<?xml version="1.0" standalone="no"?> <!DOCTYPE svg PUBLIC "-//W3C//DTD SVG 20010904//EN" "http://www.w3.org/TR/2001/REC-SVG-20010904/DTD/svg10.dtd"> <svg version="1.0" xmlns="http://www.w3.org/2000/svg" width="500.000000pt" height="500.000000pt" viewBox="0 0 500.000000 500.000000" preserveAspectRatio="xMidYMid meet"> <g transform="translate(0.000000,500.000000) scale(0.100000,-0.100000)" fill="#cf72be" stroke="none"> <path d="M3165 4518 c-49 -4 -106 -9 -125 -12 -19 -2 -62 -7 -95 -11 -33 -4 -65 -12 -71 -17 -7 -5 -16 -8 -20 -7 -5 1 -11 1 -14 -1 -3 -1 -16 -4 -30 -6 -13 -3 -29 -9 -34 -14 -6 -6 -19 -10 -30 -10 -12 0 -33 -6 -47 -14 -14 -7 -39 -16 -55 -20 -16 -4 -55 -21 -87 -37 -31 -16 -59 -29 -62 -29 -10 -1 -161 -74 -195 -95 -19 -12 -64 -37 -100 -55 -72 -38 -168 -102 -246 -164 -28 -23 -62 -48 -74 -56 -33 -22 -120 -92 -160 -130 -19 -18 -46 -40 -60 -49 -68 -44 -390 -365 -458 -456 -60 -81 -118 -142 -120 -128 -2 8 0 18 6 22 9 6 42 65 42 76 0 3 -5 3 -12 -1 -7 -4 -8 -3 -4 5 4 6 11 9 16 6 5 -3 24 23 41 57 66 131 182 291 283 390 27 26 30 27 42 10 7 -9 14 -24 14 -32 1 -10 3 -11 7 -2 2 6 10 10 16 7 7 -3 2 2 -10 11 -24 17 -32 41 -10 28 9 -6 9 -4 -1 8 -8 10 -9 19 -4 22 6 3 12 -1 16 -9 8 -23 23 -18 23 8 1 42 5 52 12 27 9 -29 -7 -72 -22 -63 -6 3 -7 1 -3 -5 4 -6 13 -9 21 -6 8 4 12 11 8 17 -4 6 0 8 11 4 12 -5 15 -3 9 6 -4 6 -8 24 -9 39 l-1 28 36 -21 36 -22 -28 26 c-18 16 -24 28 -17 32 6 4 18 -1 26 -11 14 -18 14 -18 4 4 -9 18 -8 22 5 22 8 0 15 6 15 13 0 7 3 8 8 2 4 -5 16 -11 27 -13 18 -2 17 0 -5 17 -17 14 -20 19 -9 18 10 -2 24 -9 32 -15 11 -9 17 -10 22 -2 4 6 1 9 -7 8 -7 -2 -14 8 -16 21 -2 13 0 21 5 18 5 -3 17 3 26 14 10 11 23 17 29 13 6 -4 17 1 25 12 12 16 15 17 24 4 8 -12 9 -10 4 8 -7 25 -3 27 26 12 11 -6 19 -7 18 -3 -3 20 2 34 11 28 6 -3 10 -2 10 3 0 6 -7 13 -16 16 -21 8 -188 -100 -178 -116 5 -7 3 -8 -5 -3 -7 4 -22 -1 -34 -12 -12 -11 -53 -41 -91 -68 -37 -26 -102 -81 -143 -121 -41 -41 -79 -74 -84 -74 -6 0 -8 -4 -4 -9 3 -5 -7 -17 -22 -26 -42 -26 -108 -114 -153 -205 -42 -84 -120 -276 -120 -295 0 -6 -32 -52 -70 -101 -86 -109 -107 -139 -202 -289 -82 -130 -254 -528 -279 -642 -6 -32 -12 -128 -13 -213 -1 -254 28 -375 133 -553 134 -227 283 -343 557 -432 261 -85 488 -115 804 -104 60 2 332 48 440 74 143 34 363 100 425 126 11 5 45 18 75 29 30 12 102 47 160 77 58 31 121 65 140 75 40 21 41 22 173 108 55 36 107 70 116 75 21 13 101 75 125 97 11 10 25 18 31 18 6 0 17 9 25 20 8 11 17 20 21 20 19 0 259 237 287 283 9 15 23 27 32 27 13 0 13 1 0 10 -13 9 -7 14 12 11 4 0 5 5 2 12 -3 8 22 59 55 115 33 55 77 134 97 174 20 40 39 75 43 78 3 3 8 14 9 25 2 11 8 23 14 26 5 3 10 12 11 20 2 8 21 52 43 99 43 89 129 313 161 415 15 48 30 71 81 122 66 66 121 145 141 203 19 52 25 273 12 402 -28 272 -154 511 -353 666 -78 60 -339 198 -449 236 -201 69 -469 96 -724 74z m3 -28 c-9 -6 -28 -11 -41 -12 -14 -1 -24 -5 -21 -9 2 -4 21 -3 41 1 88 19 113 19 113 -1 0 -10 -4 -21 -10 -24 -5 -3 -10 2 -10 12 0 14 -2 15 -9 4 -5 -7 -14 -10 -20 -7 -6 4 -11 2 -11 -4 0 -6 -5 -8 -10 -5 -6 4 -16 2 -23 -3 -20 -17 -23 -17 -40 -3 -14 11 -17 11 -18 0 0 -8 -5 -2 -10 13 -8 22 -14 25 -31 19 -12 -4 -22 -15 -24 -24 -1 -10 2 -15 7 -12 5 4 6 -1 3 -9 -5 -12 -11 -13 -25 -5 -13 6 -19 6 -19 0 0 -6 -7 -8 -15 -5 -8 4 -15 10 -15 15 0 5 7 9 15 9 8 0 15 4 15 9 0 5 -13 4 -30 -2 -16 -6 -33 -8 -37 -4 -9 10 17 28 37 25 8 -1 40 4 70 10 56 12 93 18 120 20 12 1 12 -1 -2 -8z m147 -10 c10 17 96 12 117 -7 15 -13 18 -14 13 -2 -9 24 70 25 84 2 6 -10 11 -12 11 -5 0 13 56 12 78 -2 5 -3 13 0 15 6 4 9 8 10 14 3 4 -6 15 -11 23 -11 55 -2 121 -30 70 -30 -11 0 -20 4 -20 8 0 4 -7 5 -15 2 -9 -4 -15 0 -15 7 0 10 -2 11 -8 2 -8 -13 -62 -13 -62 1 0 4 -7 5 -16 2 -8 -3 -12 -2 -9 4 3 6 1 10 -4 10 -6 0 -11 -4 -11 -8 0 -4 -15 -8 -34 -8 -19 0 -33 3 -30 7 5 8 -27 22 -34 14 -3 -3 0 -5 7 -5 7 0 10 -4 7 -8 -8 -13 -157 -6 -166 7 -5 10 -9 9 -13 -3 -8 -21 -47 -16 -47 6 0 15 3 17 19 8 13 -7 22 -7 26 0z m-225 -41 c0 -18 -2 -19 -15 -9 -8 7 -15 16 -15 21 0 5 7 9 15 9 9 0 15 -9 15 -21z m-142 -5 c18 -8 32 -20 32 -25 0 -14 -20 -11 -21 4 0 6 -4 3 -9 -8 -6 -14 -9 -15 -10 -5 0 12 -3 11 -11 -2 -5 -10 -15 -18 -20 -18 -6 0 -7 4 -4 10 7 11 -63 -17 -83 -32 -9 -8 -11 -6 -6 8 7 19 6 19 -8 0 -15 -18 -44 -14 -33 5 4 5 1 9 -5 9 -7 0 -9 -8 -5 -22 6 -17 4 -20 -9 -15 -9 4 -16 2 -16 -4 0 -6 -4 -7 -10 -4 -5 3 -10 11 -10 16 0 6 4 8 9 4 5 -3 12 -1 16 5 7 11 -5 13 -29 4 -8 -3 -13 -11 -10 -18 3 -7 -2 -18 -9 -25 -12 -9 -16 -8 -21 4 -3 8 -11 15 -17 15 -9 0 -9 -4 0 -14 7 -9 8 -17 3 -20 -6 -3 -13 1 -16 9 -5 14 -10 14 -43 -1 -21 -9 -44 -17 -50 -17 -7 0 -13 -4 -13 -8 0 -4 -11 -10 -25 -13 -14 -4 -25 -11 -25 -17 0 -6 6 -7 13 -3 9 5 9 3 -1 -7 -11 -12 -14 -12 -21 0 -10 15 -31 6 -31 -13 0 -8 -7 -20 -17 -27 -15 -13 -15 -12 -4 10 11 19 11 22 -1 15 -7 -5 -16 -9 -20 -9 -3 0 -10 -4 -15 -9 -5 -5 -3 -6 5 -2 6 4 12 3 12 -2 0 -14 -28 -23 -36 -11 -7 12 -34 -7 -34 -25 0 -6 -21 -24 -48 -41 -26 -16 -50 -33 -53 -38 -4 -5 -9 -5 -12 0 -4 6 6 16 21 24 42 21 84 51 78 56 -4 5 -144 -74 -180 -101 -10 -9 -15 -20 -10 -27 5 -9 2 -10 -9 -6 -19 7 -23 -9 -4 -17 6 -3 -1 -3 -17 -1 -16 2 -34 -2 -43 -10 -8 -8 -10 -15 -4 -15 6 0 11 -5 11 -11 0 -7 -9 -9 -21 -6 -12 3 -27 0 -33 -6 -14 -14 -30 -49 -27 -60 1 -5 -2 -6 -7 -3 -5 3 -20 -6 -32 -19 -13 -14 -29 -25 -37 -25 -7 0 -12 -3 -12 -7 3 -20 -2 -34 -10 -28 -5 3 -16 -1 -24 -9 -8 -8 -18 -12 -22 -8 -4 4 -5 -2 -3 -13 2 -13 -4 -21 -17 -23 -18 -4 -18 -3 -5 14 14 17 14 18 -2 5 -10 -7 -16 -17 -13 -21 3 -4 -2 -13 -9 -19 -20 -17 -32 5 -15 27 12 16 12 16 -6 0 -16 -14 -16 -19 -5 -33 12 -14 12 -18 0 -25 -8 -5 -18 -6 -22 -4 -4 3 -5 -3 -1 -12 4 -11 2 -15 -4 -11 -6 4 -13 -3 -16 -14 -4 -16 -11 -20 -26 -16 -15 4 -19 0 -16 -14 2 -11 -6 -26 -21 -38 -13 -10 -24 -24 -24 -31 0 -6 -4 -8 -10 -5 -5 3 -10 -1 -10 -10 0 -10 -6 -15 -13 -12 -8 3 -14 -1 -15 -9 -1 -8 -3 -21 -4 -29 -1 -8 -6 -15 -11 -15 -11 0 -67 -59 -67 -71 0 -5 -5 -9 -11 -9 -6 0 -8 -7 -5 -16 3 -8 2 -13 -2 -11 -4 3 -13 -1 -20 -9 -7 -8 -10 -14 -7 -14 4 0 -1 -7 -9 -16 -9 -8 -16 -22 -16 -30 0 -8 -7 -14 -15 -14 -8 0 -22 -18 -31 -40 -9 -22 -20 -40 -25 -40 -5 0 -8 -3 -7 -7 3 -9 -32 -65 -46 -74 -5 -4 -5 -12 -2 -18 4 -7 2 -10 -5 -9 -7 2 -13 -1 -14 -7 0 -5 -11 -28 -25 -50 -13 -22 -34 -63 -46 -91 -12 -28 -33 -69 -48 -90 -14 -21 -26 -49 -26 -61 0 -13 -4 -23 -10 -23 -5 0 -10 -6 -10 -12 0 -7 -9 -31 -19 -53 -10 -22 -19 -43 -20 -47 -1 -4 -9 -24 -17 -44 -8 -20 -13 -39 -10 -42 3 -3 1 -11 -5 -19 -9 -10 -8 -13 2 -13 12 0 31 37 53 104 4 10 9 17 11 14 3 -3 -6 -40 -20 -84 -15 -43 -28 -87 -31 -96 -22 -91 -33 -152 -27 -162 4 -5 0 -6 -7 -1 -10 6 -12 3 -8 -12 3 -11 -1 -31 -8 -44 -15 -28 -19 -52 -4 -29 8 13 10 12 10 -2 0 -10 -4 -18 -10 -18 -5 0 -10 -7 -10 -15 0 -8 5 -15 11 -15 5 0 7 -5 4 -10 -4 -6 -12 -7 -18 -3 -7 4 -6 -1 2 -11 10 -12 11 -20 3 -28 -6 -6 -8 -18 -4 -27 5 -14 4 -14 -14 -1 -18 14 -18 14 -3 -5 22 -26 32 -158 11 -150 -8 3 -6 -6 7 -23 18 -26 18 -30 5 -44 -13 -13 -13 -15 0 -15 8 0 13 4 10 9 -3 4 0 8 6 8 6 0 10 -6 9 -12 -3 -25 1 -39 10 -34 5 4 7 -4 3 -16 -3 -14 -1 -19 6 -14 8 5 10 1 5 -10 -5 -13 -3 -15 7 -9 9 5 11 4 6 -3 -4 -6 2 -20 13 -31 11 -11 18 -27 15 -34 -3 -8 2 -14 10 -14 8 0 12 5 9 11 -6 10 34 -19 47 -35 3 -3 13 -9 24 -12 12 -5 16 -13 12 -25 -6 -16 -5 -16 7 0 16 20 28 14 20 -10 -3 -11 -2 -13 4 -6 12 16 45 14 39 -3 -4 -10 -1 -11 14 -3 14 7 22 6 32 -4 11 -10 19 -11 33 -4 13 8 16 7 11 -1 -5 -7 3 -10 23 -7 16 2 35 0 42 -5 7 -4 21 -3 31 2 12 7 18 6 18 -1 0 -7 13 -10 35 -7 22 3 35 1 35 -7 0 -6 5 -4 10 4 8 12 10 12 10 1 0 -11 3 -11 15 -1 8 6 19 9 25 5 6 -4 17 -2 24 4 15 13 49 4 40 -10 -3 -5 2 -6 10 -3 9 3 14 10 11 14 -3 5 3 6 13 4 9 -3 36 -1 60 4 23 6 42 7 42 3 0 -4 7 -8 15 -8 8 0 12 4 9 9 -3 4 10 6 28 5 18 -2 39 1 46 6 8 6 18 5 29 -4 13 -11 15 -11 9 -1 -6 11 -1 13 20 11 16 -2 34 0 41 4 6 4 35 9 65 12 29 2 69 9 88 15 19 5 46 10 59 10 24 0 24 -1 6 -14 -11 -8 -23 -12 -27 -10 -10 6 -11 -10 -1 -19 3 -4 12 -2 18 3 22 18 149 47 233 53 12 1 26 7 30 12 9 12 30 18 60 17 12 -1 22 3 22 9 0 6 7 9 15 5 8 -3 15 -1 15 4 0 5 6 7 13 4 8 -3 20 2 27 10 7 9 17 13 23 9 6 -4 7 -1 3 6 -6 8 -2 11 10 9 11 -2 18 2 17 9 -2 8 6 9 27 3 24 -7 28 -6 23 8 -4 10 -3 14 2 10 4 -4 14 -3 22 3 7 6 13 8 13 4 0 -4 11 0 25 9 13 9 31 16 40 16 8 0 15 5 15 10 0 6 5 10 11 10 6 0 8 -7 4 -17 -5 -15 -3 -15 13 2 11 11 18 23 15 27 -2 4 3 5 12 2 9 -4 23 0 33 8 31 27 42 31 35 11 -6 -15 -5 -16 9 -3 9 8 14 18 11 22 -2 4 4 5 13 1 12 -4 15 -3 10 5 -7 12 5 16 33 13 7 -2 10 2 7 7 -3 5 7 9 21 8 20 -1 31 6 40 24 7 14 13 21 13 16 0 -6 7 -1 16 10 8 10 12 12 8 4 -7 -13 -5 -13 9 -2 9 8 21 11 26 7 7 -4 8 1 4 12 -3 10 -3 15 2 11 4 -4 14 0 22 10 8 9 11 11 8 4 -5 -10 1 -9 24 2 17 9 31 21 31 26 0 6 8 10 18 10 10 0 28 9 40 20 12 11 25 21 29 23 5 1 7 5 5 10 -1 4 7 7 19 7 11 0 17 5 14 10 -3 6 1 10 9 10 8 0 22 7 31 16 8 9 22 13 30 10 10 -3 12 0 8 11 -4 10 -2 14 5 9 6 -3 13 -2 17 4 8 13 26 13 45 0 13 -9 13 -12 -3 -24 -10 -8 -15 -16 -10 -19 4 -2 16 4 27 14 18 17 17 18 -15 38 -22 13 -28 21 -17 21 10 0 22 9 28 20 6 11 16 20 23 20 7 0 6 -4 -3 -10 -8 -5 -10 -10 -5 -10 18 0 38 18 31 28 -3 6 4 14 16 18 13 4 28 14 35 23 7 9 13 12 13 7 0 -5 7 -3 15 4 8 7 12 17 8 23 -3 6 -1 7 5 3 7 -4 12 -3 12 3 0 5 9 13 20 16 11 4 18 11 15 16 -4 5 0 9 7 9 7 0 22 13 33 29 11 17 21 28 23 26 2 -2 14 7 27 21 12 13 28 24 35 24 7 0 11 3 7 6 -10 11 65 75 81 69 12 -5 13 -3 2 10 -11 13 -10 14 5 9 13 -5 16 -4 11 4 -4 7 3 22 16 34 13 13 31 35 40 50 13 20 24 26 47 24 16 -1 28 2 25 6 -3 4 -15 8 -27 9 -20 1 -20 2 3 9 14 4 19 8 11 9 -8 1 -3 11 15 29 16 15 32 26 36 25 3 -2 4 7 0 19 -3 11 -1 19 4 16 5 -3 17 3 27 14 9 10 14 18 10 18 -5 0 1 7 11 15 11 8 14 15 8 15 -8 0 -4 9 8 22 11 12 20 25 20 28 0 4 10 12 23 19 18 9 18 11 2 6 -19 -5 -19 -4 -2 9 9 7 17 18 17 25 0 6 8 11 18 11 14 0 15 2 2 10 -13 8 -13 10 2 10 11 0 16 6 13 20 -2 11 2 23 8 27 17 11 53 84 49 101 -2 9 1 11 9 6 9 -5 10 -2 6 10 -4 9 -3 24 2 34 14 26 61 132 61 137 0 2 5 16 12 32 6 15 12 40 13 55 2 15 6 35 10 45 11 25 11 22 19 78 4 28 10 58 13 68 2 9 0 17 -6 17 -6 0 -11 -18 -11 -39 0 -22 -4 -43 -10 -46 -5 -3 -10 -15 -10 -26 0 -31 -42 -169 -51 -169 -5 0 -6 7 -3 15 3 7 16 65 28 127 29 143 29 333 -2 415 -10 29 -22 50 -25 46 -6 -6 -12 29 -8 50 1 5 -3 6 -9 2 -5 -3 -10 1 -10 10 0 10 -5 13 -12 9 -6 -4 -8 -3 -5 3 9 14 -62 95 -76 86 -5 -3 -7 -1 -3 5 3 5 0 13 -6 15 -10 4 -10 6 -1 6 19 1 146 -126 139 -138 -4 -6 -3 -11 2 -11 5 0 16 -18 25 -41 10 -25 20 -38 27 -34 6 4 9 14 6 24 -4 9 2 5 13 -9 14 -18 17 -28 9 -38 -8 -9 -7 -11 3 -8 9 4 22 -12 38 -44 13 -27 23 -52 21 -56 -1 -4 3 -10 10 -14 6 -4 12 -17 13 -28 1 -12 5 -22 9 -22 11 0 6 -23 -7 -32 -6 -4 -2 -8 8 -8 10 0 15 -4 12 -10 -3 -5 -2 -10 4 -10 5 0 8 -9 6 -20 -2 -11 1 -20 6 -20 6 0 8 -4 4 -9 -3 -5 2 -16 10 -24 18 -18 21 -130 5 -172 -7 -19 -7 -24 2 -19 8 5 9 2 5 -9 -3 -10 -3 -17 2 -17 10 0 8 -31 -4 -49 -5 -9 -4 -12 2 -8 6 4 13 0 17 -8 3 -8 0 -17 -6 -21 -7 -5 -8 -2 -3 6 5 9 4 11 -3 6 -8 -5 -9 -13 -3 -24 4 -9 7 -27 6 -39 -1 -13 2 -23 6 -23 5 0 6 -7 3 -15 -4 -8 -10 -13 -14 -10 -10 6 -7 -15 4 -34 6 -10 5 -12 -3 -7 -8 6 -10 1 -6 -17 4 -16 1 -30 -10 -41 -9 -9 -13 -16 -8 -16 4 0 4 -4 -2 -8 -5 -4 -20 -25 -32 -47 -13 -22 -29 -39 -38 -39 -12 2 -13 -1 -4 -12 8 -10 8 -14 0 -14 -6 0 -11 -5 -11 -11 0 -16 -26 -39 -35 -31 -5 4 -5 2 -2 -5 4 -6 -6 -22 -22 -36 -17 -14 -27 -28 -24 -31 11 -10 -36 -48 -50 -40 -6 4 -9 4 -5 -1 9 -10 -11 -37 -22 -30 -5 3 -18 -9 -30 -26 -14 -18 -28 -28 -37 -25 -8 4 -11 1 -8 -5 9 -13 -23 -38 -50 -39 l-20 -1 20 -9 20 -9 -20 0 c-17 -1 -17 -3 -5 -11 9 -6 10 -10 3 -10 -6 0 -15 6 -20 13 -12 19 -14 49 -3 42 5 -3 17 7 27 22 10 15 22 31 28 36 5 4 0 6 -11 4 -28 -4 -73 -47 -67 -64 3 -7 -2 -13 -10 -13 -9 0 -19 -4 -22 -10 -4 -6 3 -9 16 -7 12 1 24 -4 27 -12 3 -10 0 -11 -9 -5 -12 7 -12 5 -1 -9 15 -18 7 -41 -12 -34 -7 3 -13 -1 -13 -9 0 -7 5 -10 10 -7 6 3 7 1 3 -6 -4 -6 -11 -9 -15 -6 -5 2 -19 -7 -32 -22 -13 -14 -17 -23 -9 -18 12 6 12 5 3 -5 -12 -13 -37 -5 -28 10 3 4 -1 13 -8 18 -10 9 -13 6 -13 -13 0 -13 3 -22 7 -19 4 2 10 -3 13 -12 3 -8 2 -12 -4 -9 -6 3 -13 -1 -16 -10 -5 -13 -9 -13 -22 -3 -13 11 -15 10 -9 -4 6 -17 -18 -46 -30 -35 -3 4 -12 2 -20 -4 -7 -7 -13 -7 -13 -2 0 6 -11 8 -25 5 -14 -2 -25 -8 -25 -12 0 -10 52 -6 71 5 8 4 -3 -8 -25 -28 -21 -20 -43 -34 -50 -30 -6 3 -8 2 -3 -2 9 -10 -22 -47 -34 -39 -5 3 -9 0 -9 -6 0 -7 -7 -10 -14 -7 -10 4 -13 1 -9 -9 3 -7 0 -14 -7 -14 -6 0 -9 -4 -6 -8 2 -4 -11 -18 -30 -31 -19 -13 -34 -27 -34 -32 0 -5 -9 -9 -20 -9 -10 0 -24 -9 -31 -21 -7 -13 -17 -19 -29 -16 -13 3 -16 0 -13 -14 3 -11 1 -19 -5 -19 -6 0 -23 -11 -37 -26 -14 -14 -30 -22 -37 -18 -7 5 -9 2 -6 -8 4 -8 0 -15 -8 -15 -7 0 -11 4 -8 8 10 16 -14 18 -27 2 -8 -9 -9 -14 -3 -10 7 4 15 0 18 -9 3 -8 2 -12 -4 -9 -6 3 -10 1 -10 -6 0 -8 -4 -8 -15 1 -13 11 -14 10 -10 -3 4 -8 1 -18 -6 -23 -8 -5 -10 -3 -4 7 4 8 -4 1 -18 -14 -17 -19 -27 -24 -30 -15 -3 8 -6 5 -6 -6 -1 -11 -4 -17 -7 -13 -3 3 -16 -5 -29 -18 -12 -14 -26 -21 -30 -17 -5 4 -5 2 -2 -4 8 -15 -15 -35 -42 -37 -11 0 -18 -4 -16 -7 4 -6 -4 -14 -47 -48 -13 -11 -16 -10 -14 5 0 10 -7 18 -19 20 l-20 3 20 -9 c11 -5 14 -10 7 -10 -9 -1 -10 -6 -3 -19 8 -14 5 -18 -11 -19 -12 -1 -24 -7 -28 -14 -4 -6 -13 -9 -19 -5 -7 5 -8 1 -4 -10 4 -12 3 -15 -5 -10 -7 4 -12 3 -12 -3 0 -6 -8 -7 -17 -4 -16 6 -16 5 -4 -10 12 -15 12 -17 -4 -11 -14 6 -16 4 -10 -6 5 -9 4 -11 -3 -6 -7 4 -12 1 -12 -6 0 -11 -2 -10 -9 0 -6 11 -9 9 -13 -5 -6 -21 -38 -27 -51 -9 -5 7 -7 3 -6 -9 3 -44 -1 -48 -21 -25 -11 13 -20 18 -20 12 0 -6 5 -14 10 -17 6 -4 8 -11 4 -16 -3 -5 -10 -7 -15 -4 -5 4 -9 -2 -9 -12 0 -15 -2 -16 -10 -3 -6 10 -10 11 -10 3 0 -7 -7 -13 -16 -13 -9 0 -14 -6 -11 -13 3 -8 -3 -14 -16 -14 -12 -1 -28 -11 -37 -23 -9 -12 -25 -22 -37 -23 -12 0 -21 -4 -20 -8 1 -4 -2 -8 -8 -9 -5 -1 -23 -12 -40 -23 -16 -12 -34 -22 -40 -23 -7 -1 -24 -13 -40 -28 -15 -14 -31 -23 -35 -21 -4 3 -10 -2 -14 -10 -3 -8 -16 -15 -28 -15 -19 0 -20 -2 -8 -10 13 -8 13 -10 -1 -10 -9 0 -22 -7 -29 -15 -7 -8 -17 -12 -23 -8 -5 3 -7 1 -4 -4 4 -6 0 -16 -9 -23 -8 -7 -13 -19 -10 -27 4 -9 -4 -13 -29 -13 -39 0 -90 -21 -153 -63 -23 -15 -47 -25 -54 -21 -7 5 -8 3 -3 -6 6 -10 4 -12 -9 -7 -9 4 -15 3 -12 -1 3 -5 -23 -21 -57 -37 -34 -15 -57 -30 -50 -32 7 -2 22 1 33 7 12 6 24 9 27 7 3 -3 -8 -12 -25 -21 -16 -8 -32 -12 -36 -9 -3 4 -6 2 -6 -4 0 -5 -18 -18 -40 -29 -22 -10 -40 -23 -40 -27 0 -5 -4 -6 -8 -3 -5 3 -30 -6 -56 -20 -25 -14 -52 -22 -58 -18 -7 5 -8 3 -3 -6 6 -10 4 -12 -9 -7 -11 5 -15 3 -10 -4 4 -7 1 -10 -7 -7 -8 3 -25 -2 -39 -11 -14 -9 -58 -28 -97 -41 -40 -13 -73 -28 -73 -33 0 -4 -5 -5 -10 -2 -6 4 -22 -1 -35 -9 -14 -9 -25 -13 -25 -9 0 5 -5 1 -10 -7 -9 -13 -10 -13 -10 0 0 9 -3 11 -8 5 -13 -17 -92 -56 -102 -50 -6 3 -10 0 -10 -7 0 -9 -3 -9 -10 2 -8 13 -10 12 -10 -4 0 -11 -5 -16 -13 -13 -9 3 -13 -2 -11 -16 4 -33 4 -33 12 -21 11 17 150 86 160 80 5 -3 16 4 26 15 10 12 24 18 32 15 8 -3 25 1 37 9 12 7 34 16 50 19 15 2 34 12 42 20 9 8 22 13 31 9 8 -3 23 2 33 11 10 9 27 18 37 20 20 4 115 47 124 56 3 3 30 16 60 30 30 13 62 30 71 37 8 7 19 13 23 13 13 0 56 37 50 43 -3 3 3 3 15 0 22 -6 30 12 9 19 -7 3 -5 7 6 11 11 4 15 3 10 -4 -10 -17 38 1 56 20 16 17 33 29 85 58 34 19 66 21 440 23 329 2 370 -3 395 -50 8 -16 7 -24 -4 -35 -13 -14 -16 -13 -25 2 -10 17 -10 17 -11 1 0 -16 -11 -23 -32 -19 -15 2 -8 -17 8 -23 8 -3 13 -2 10 3 -7 10 19 23 28 14 9 -9 -32 -35 -44 -28 -6 3 -10 1 -10 -5 0 -7 -6 -8 -17 -2 -21 10 -33 10 -50 -1 -9 -5 -13 -3 -13 7 0 9 7 16 15 16 8 0 15 5 15 10 0 7 -6 7 -17 1 -14 -7 -27 -1 -55 24 -21 17 -38 37 -38 43 0 6 -4 13 -9 16 -5 4 -7 -3 -4 -14 3 -11 9 -23 14 -26 5 -3 9 -10 9 -15 0 -6 -15 2 -32 17 -18 15 -32 31 -31 35 2 5 -4 6 -13 2 -12 -4 -8 -12 18 -34 18 -15 36 -28 40 -29 4 0 6 -6 4 -12 -1 -7 -1 -10 1 -5 3 4 9 7 14 7 6 0 7 -5 4 -10 -4 -6 -1 -9 6 -8 7 2 18 -7 24 -20 19 -35 27 -40 15 -8 -6 16 -8 31 -6 34 3 3 9 -4 12 -14 4 -10 13 -26 21 -35 13 -15 12 -17 -4 -15 -10 0 -17 -4 -16 -10 1 -6 -3 -11 -10 -12 -42 -5 -70 -11 -75 -18 -4 -4 1 -4 11 -1 9 4 17 2 17 -4 0 -7 -11 -9 -25 -7 -18 4 -25 1 -26 -11 0 -12 -2 -11 -8 3 -7 19 -8 19 -13 -1 -3 -11 -20 -27 -37 -36 -29 -15 -33 -15 -38 0 -5 13 -8 12 -15 -6 -5 -15 -13 -21 -24 -17 -10 4 -13 2 -8 -6 5 -8 2 -9 -10 -5 -13 5 -17 3 -13 -7 4 -9 -5 -16 -26 -21 -18 -4 -35 -7 -39 -6 -5 0 -8 -4 -8 -10 0 -5 -4 -7 -10 -4 -5 3 -10 2 -10 -4 0 -6 -6 -8 -13 -5 -8 3 -25 0 -39 -5 -18 -7 -29 -6 -37 2 -9 9 -11 8 -5 -7 5 -13 4 -17 -3 -13 -6 4 -16 0 -23 -8 -15 -18 -31 -10 -24 13 2 9 -1 6 -8 -8 -17 -32 -38 -36 -39 -7 -1 17 -2 18 -6 4 -2 -9 -9 -15 -14 -12 -5 4 -10 -4 -10 -17 -1 -17 -3 -18 -6 -5 -2 9 -8 15 -13 12 -5 -3 -7 -11 -4 -19 6 -16 -28 -18 -38 -2 -5 7 -8 3 -8 -9 0 -16 -2 -17 -10 -5 -8 13 -11 12 -23 -4 -8 -11 -17 -15 -20 -9 -4 6 -18 8 -32 6 -14 -3 -22 -10 -18 -16 4 -6 0 -8 -10 -4 -9 3 -18 1 -21 -6 -2 -7 -5 -4 -5 5 -1 18 -31 14 -31 -4 0 -5 5 -6 12 -2 7 4 8 3 4 -4 -4 -7 -20 -10 -37 -7 -22 4 -28 2 -23 -6 4 -8 3 -9 -5 -5 -6 4 -25 1 -41 -8 -17 -8 -28 -11 -25 -6 3 4 -6 7 -19 6 -13 0 -22 -4 -19 -8 2 -5 -7 -7 -21 -6 -13 1 -23 5 -20 9 2 4 0 10 -6 14 -6 4 -8 10 -5 15 3 5 1 11 -5 15 -5 3 -10 2 -10 -4 0 -5 -3 -18 -6 -28 -4 -13 -3 -15 4 -4 13 18 21 1 11 -24 -4 -11 -8 -14 -8 -7 -1 14 -31 12 -44 -3 -5 -6 -6 -2 -3 8 3 10 6 24 6 30 0 7 4 6 10 -3 6 -9 10 -10 10 -3 0 26 -21 23 -31 -6 -12 -35 -28 -32 -53 9 -18 31 -36 39 -36 17 0 -8 -7 -14 -15 -14 -10 0 -14 6 -10 16 3 10 -1 9 -10 -4 -9 -11 -19 -19 -23 -17 -3 2 -8 -2 -10 -10 -2 -8 -1 -9 5 -3 10 13 33 13 32 0 -1 -5 -5 -9 -11 -7 -5 1 -7 -2 -4 -7 8 -12 -16 -20 -48 -17 -14 2 -26 -1 -26 -5 0 -5 -5 -9 -11 -9 -5 0 -8 4 -5 9 3 5 -5 8 -19 9 -15 0 -22 -5 -18 -12 4 -7 2 -7 -7 1 -7 6 -20 9 -29 6 -13 -4 -14 -3 -1 5 8 6 18 8 22 6 4 -3 5 2 2 10 -6 16 -41 13 -58 -5 -8 -9 -8 -10 2 -5 6 4 12 5 12 2 0 -3 -10 -10 -22 -17 -18 -10 -20 -9 -14 7 7 17 6 17 -12 1 -23 -21 -34 -5 -21 28 4 11 8 16 8 11 1 -12 30 26 30 39 0 6 -4 2 -10 -8 -14 -24 -29 -21 -30 6 l-1 22 -6 -23 c-8 -26 -20 -30 -34 -10 -8 10 -9 9 -4 -4 3 -10 -1 -30 -9 -45 -13 -24 -15 -25 -16 -8 0 11 -3 14 -6 8 -8 -22 -30 -15 -64 20 -17 17 -29 27 -25 20 9 -17 -48 -34 -64 -20 -10 9 -11 9 -5 -2 5 -9 4 -12 -3 -7 -7 4 -22 9 -34 11 -38 8 -44 23 -18 50 13 14 19 25 14 25 -17 0 -31 -15 -38 -37 -8 -25 -28 -30 -48 -11 -7 7 -18 14 -24 15 -6 1 -22 4 -35 7 -13 2 -46 12 -74 21 -27 10 -54 19 -60 20 -5 1 -18 6 -28 10 -15 6 -16 10 -5 17 10 7 8 8 -5 4 -21 -7 -116 27 -150 54 -13 11 -28 16 -32 12 -5 -4 -5 -2 -2 4 3 6 -6 17 -21 25 -50 25 -93 62 -88 75 3 8 0 11 -10 7 -10 -4 -12 0 -7 13 4 11 3 15 -4 11 -6 -4 -20 9 -32 28 -11 19 -28 35 -37 35 -10 0 -15 3 -11 6 3 3 -3 16 -14 27 -11 12 -18 26 -16 31 2 6 -7 19 -20 30 -13 10 -22 24 -19 32 3 7 -4 24 -15 38 -11 14 -17 26 -12 26 4 0 1 6 -8 13 -20 15 -53 113 -43 128 4 8 3 9 -4 5 -11 -7 -17 25 -13 61 1 7 -3 32 -9 54 -12 45 -16 285 -5 319 4 12 11 17 18 13 8 -4 8 -2 -1 9 -12 15 -11 24 5 66 3 9 7 20 8 25 2 4 4 8 5 10 1 1 4 11 5 22 3 22 96 270 122 325 10 19 16 38 15 43 -1 4 3 7 9 7 5 0 8 4 4 9 -3 5 2 16 10 24 8 9 15 20 15 26 0 6 5 11 10 11 6 0 9 3 8 8 -3 13 52 122 62 122 6 0 9 3 8 8 -4 12 54 112 65 112 6 0 8 3 4 6 -6 7 36 68 63 92 11 10 12 12 1 6 -9 -5 -7 2 5 18 10 14 21 25 23 23 8 -8 28 21 23 34 -3 9 -1 12 6 7 7 -4 12 -2 12 4 0 6 5 8 12 4 7 -5 8 -3 3 6 -5 8 -2 18 9 26 10 7 17 15 17 18 -1 14 12 35 19 31 4 -2 5 7 2 21 -2 14 -1 24 4 23 28 -5 46 2 40 16 -4 10 1 15 14 15 11 0 20 5 20 11 0 15 26 39 34 32 6 -6 10 12 7 30 -1 5 3 6 8 3 4 -3 21 13 37 37 16 23 39 50 52 60 12 10 19 24 15 30 -4 7 0 8 11 4 13 -5 17 -3 13 7 -8 20 12 34 46 32 24 -1 26 0 13 10 -9 6 -16 17 -16 24 0 7 3 11 6 7 3 -3 16 4 29 15 13 11 26 19 30 18 5 -1 15 13 23 30 10 20 18 27 22 20 6 -9 9 -9 14 -1 4 6 12 8 18 5 7 -4 8 -2 4 5 -4 6 -12 9 -17 6 -5 -3 -6 1 -3 9 6 15 18 20 37 17 5 -1 6 2 3 7 -6 10 32 44 43 38 4 -3 18 2 30 10 18 13 20 19 10 30 -10 12 -9 13 7 7 16 -6 17 -4 6 9 -10 13 -9 15 10 15 50 1 53 2 32 17 -18 14 -18 14 8 12 20 -2 25 1 20 12 -4 11 -1 14 9 10 8 -3 23 4 34 15 11 11 14 16 6 12 -10 -6 -12 -4 -7 4 4 6 13 11 19 10 18 -3 47 12 47 24 0 5 -9 2 -20 -8 -11 -10 -20 -14 -20 -9 0 9 40 48 50 49 3 0 4 3 2 8 -1 4 10 5 25 1 19 -4 24 -3 14 4 -10 7 -6 13 17 23 17 7 28 17 26 21 -3 4 3 5 12 1 11 -4 15 -2 11 4 -3 5 5 16 18 23 14 7 25 20 25 28 0 8 6 12 14 9 9 -4 17 2 21 14 4 10 11 17 16 14 5 -4 9 -1 9 4 0 6 7 11 15 11 7 0 19 8 24 18 6 9 11 13 11 9 0 -4 10 1 22 13 16 15 24 17 30 8 6 -10 8 -9 8 2 0 15 93 70 118 70 6 0 12 3 12 8 0 6 81 56 105 64 6 2 9 6 8 9 -1 3 4 6 12 6 21 0 95 35 95 44 0 5 6 6 14 3 7 -3 20 1 27 8 8 7 21 14 29 16 8 2 35 13 60 24 25 12 48 21 53 20 4 -1 7 3 7 9 0 5 4 8 10 4 5 -3 36 6 70 20 33 14 74 27 91 29 16 2 33 6 36 10 10 10 28 7 61 -10z m637 -20 c70 -5 117 -11 145 -19 8 -2 31 -7 50 -10 123 -19 199 -45 340 -113 97 -47 125 -66 186 -128 57 -57 77 -86 98 -141 44 -112 50 -298 15 -458 -31 -144 -85 -327 -112 -380 -30 -59 -134 -225 -146 -235 -4 -3 -18 -21 -31 -40 -13 -19 -29 -40 -35 -46 -5 -6 -32 -38 -60 -70 -76 -89 -279 -294 -330 -334 -26 -19 -54 -42 -63 -51 -30 -28 -172 -129 -181 -129 -5 0 -11 -3 -13 -7 -5 -12 -65 -54 -138 -99 -94 -57 -96 -58 -200 -111 -204 -106 -277 -141 -315 -153 -22 -7 -49 -19 -60 -26 -44 -28 -339 -126 -343 -114 -2 6 -11 6 -23 0 -11 -6 -25 -10 -32 -9 -6 2 -37 -1 -67 -6 -30 -4 -66 -9 -80 -11 -14 -1 -61 -8 -105 -14 -98 -15 -140 -19 -230 -25 -38 -2 -84 -7 -102 -10 -69 -12 -332 -5 -417 11 -91 17 -181 65 -221 118 -55 72 -70 136 -70 306 0 165 17 272 72 460 14 47 26 90 27 95 7 31 30 101 36 110 4 6 10 24 14 40 15 64 67 184 114 262 105 174 223 341 325 460 62 72 253 260 332 327 90 76 295 215 400 271 39 20 75 40 80 44 24 18 294 130 325 135 8 1 28 8 43 14 16 7 34 12 40 12 7 0 32 6 57 14 85 28 235 56 340 65 99 9 167 8 335 -5z m-1020 -143 c-3 -6 -11 -9 -16 -6 -5 4 -9 1 -9 -5 0 -6 -5 -8 -11 -4 -8 4 -7 9 2 15 7 4 17 5 21 3 4 -3 8 0 8 7 0 7 3 10 6 6 3 -3 3 -11 -1 -16z m-166 -84 c13 4 13 2 -2 -7 -9 -6 -22 -8 -27 -5 -6 3 -10 1 -10 -6 0 -7 -2 -10 -5 -7 -3 3 -3 13 1 22 4 12 10 14 17 7 5 -5 17 -7 26 -4z m-184 -97 c4 -6 -1 -7 -11 -3 -12 4 -15 3 -10 -5 4 -7 1 -12 -9 -12 -9 0 -14 -4 -10 -9 3 -5 1 -12 -4 -15 -22 -14 -21 16 1 34 26 22 34 24 43 10z m-187 -140 c-14 -22 -24 -19 -15 5 4 8 11 15 17 15 6 0 6 -7 -2 -20z m-423 -267 c-21 -15 -30 -10 -22 11 4 10 13 13 23 9 15 -6 15 -7 -1 -20z m-301 -65 c-4 -7 -22 -34 -41 -59 -18 -26 -33 -51 -33 -57 0 -5 -7 -13 -16 -16 -13 -5 -12 1 5 30 20 34 82 113 89 114 2 0 0 -6 -4 -12z m-126 -202 c-13 -24 -25 -42 -27 -40 -7 7 35 84 45 84 2 0 -6 -20 -18 -44z m3242 -19 c0 -15 -29 -57 -30 -42 0 6 3 20 6 33 7 24 24 31 24 9z m20 -563 c0 -3 -7 -18 -15 -32 -13 -25 -43 -90 -86 -190 -47 -108 -233 -413 -325 -534 -24 -31 -44 -60 -44 -65 0 -5 -8 -16 -17 -25 -10 -8 -27 -27 -38 -42 -41 -53 -51 -65 -84 -105 -19 -22 -39 -37 -45 -34 -6 3 -8 3 -4 -2 10 -11 -39 -73 -64 -81 -12 -4 -24 -1 -30 7 -7 11 -9 11 -7 -1 3 -27 -1 -41 -9 -36 -5 3 -20 -1 -35 -9 -15 -8 -27 -12 -27 -10 0 7 -75 -18 -81 -27 -3 -5 -21 -11 -38 -13 -18 -2 -39 -9 -45 -14 -7 -6 -27 -11 -44 -13 -18 -1 -32 -5 -32 -8 0 -4 -19 -12 -42 -18 -117 -29 -134 -34 -153 -42 -11 -5 -49 -14 -85 -21 -36 -6 -71 -16 -78 -22 -7 -5 -15 -7 -19 -4 -3 4 -11 3 -17 -2 -10 -8 -76 -20 -136 -26 -14 -1 -42 -7 -62 -14 -20 -7 -43 -11 -50 -10 -7 2 -22 0 -33 -3 -11 -4 -38 -9 -60 -13 -40 -6 -40 -6 -16 11 13 9 44 28 70 42 25 13 48 28 51 32 3 4 19 16 37 26 102 61 130 78 148 94 11 10 30 21 43 25 12 3 22 11 22 16 0 5 6 9 13 9 8 0 22 9 32 20 10 11 23 20 30 20 7 0 20 9 30 20 10 11 24 20 30 20 7 0 19 7 26 16 7 9 22 20 34 25 21 9 48 26 74 46 9 7 32 25 52 40 20 15 47 35 59 43 34 23 144 104 150 110 10 11 163 126 191 143 16 11 29 23 29 28 0 5 7 9 15 9 8 0 15 4 15 8 0 4 12 15 28 24 15 9 45 34 68 55 40 37 153 137 203 180 70 59 252 235 301 290 50 57 70 73 70 57z m-157 -400 c-43 -88 -81 -161 -84 -164 -4 -3 -16 -23 -28 -45 -11 -22 -32 -58 -46 -80 -14 -22 -28 -47 -32 -55 -12 -27 -126 -204 -155 -241 -15 -20 -25 -39 -21 -43 3 -3 1 -6 -6 -6 -8 0 -11 -6 -7 -16 3 -8 2 -13 -3 -9 -5 3 -22 0 -37 -5 -42 -16 -41 -5 5 47 23 27 45 53 49 58 4 6 25 37 47 70 22 33 46 66 53 73 6 7 12 17 12 22 0 5 6 15 13 22 11 11 72 106 102 158 6 10 16 24 22 31 6 8 39 68 73 134 95 183 113 215 117 211 2 -2 -31 -75 -74 -162z m-3758 -280 c-8 -20 -15 -45 -15 -55 0 -11 -4 -19 -9 -19 -6 0 -5 13 1 33 5 17 12 42 15 55 3 12 9 22 14 22 5 0 2 -16 -6 -36z m3301 -395 c3 -6 14 -9 24 -6 11 3 21 -1 24 -9 3 -8 0 -11 -9 -8 -10 4 -12 0 -8 -15 4 -17 2 -20 -12 -14 -14 5 -16 3 -10 -7 6 -10 4 -12 -9 -7 -10 4 -15 3 -11 -3 10 -17 -65 -77 -103 -83 -23 -3 -92 -61 -92 -77 0 -5 -5 -10 -11 -10 -5 0 -7 -6 -3 -12 4 -7 -2 -5 -12 5 -17 16 -17 19 -3 30 16 13 35 52 20 42 -5 -3 -12 -1 -16 4 -3 5 -14 8 -25 6 -10 -2 -24 3 -31 11 -10 12 -9 13 5 8 9 -4 16 -3 14 2 -2 5 1 10 5 11 4 1 20 9 34 18 17 12 23 13 18 4 -5 -8 0 -7 11 3 10 9 39 22 63 30 24 7 46 19 48 26 3 6 11 12 19 12 7 0 21 11 30 25 18 27 29 31 40 14z m-1511 -39 c-4 -6 -10 -8 -15 -5 -5 3 -11 1 -15 -5 -8 -13 -35 -13 -35 -1 0 9 22 16 58 20 7 0 10 -4 7 -9z m1266 -162 c-13 -10 -28 -15 -34 -11 -6 3 -7 1 -3 -5 4 -7 -1 -20 -11 -31 -15 -15 -38 -20 -131 -24 -62 -3 -116 -8 -121 -11 -5 -3 -43 -8 -84 -11 -42 -3 -87 -9 -100 -14 -14 -5 -41 -8 -61 -7 -20 2 -38 0 -41 -4 -2 -4 -32 -8 -67 -9 -35 -1 -75 -8 -91 -16 -15 -7 -25 -9 -21 -4 4 7 -8 8 -32 4 -61 -9 -159 -16 -153 -11 3 3 21 8 40 10 19 3 46 7 59 10 14 4 43 8 65 11 33 3 132 16 220 29 26 4 108 21 275 56 74 16 168 36 208 44 41 8 76 17 79 20 3 3 10 3 16 -1 6 -4 1 -14 -12 -25z m127 12 c-2 -12 -7 -20 -13 -20 -5 1 -12 -6 -15 -15 -3 -9 -9 -16 -13 -16 -4 1 -18 -9 -30 -22 -12 -13 -17 -16 -11 -7 6 8 13 20 15 26 6 18 53 74 62 74 5 0 7 -9 5 -20z m-122 -62 c4 -6 2 -14 -4 -16 -7 -2 -12 -11 -12 -19 0 -10 -6 -13 -16 -9 -8 3 -13 2 -10 -3 3 -5 -5 -16 -18 -24 -13 -9 -29 -22 -37 -29 -8 -7 -23 -20 -33 -28 -18 -13 -19 -13 -12 0 4 8 -1 6 -11 -6 -38 -43 -104 -57 -90 -19 4 9 1 12 -8 8 -8 -3 -17 2 -21 10 -3 9 -12 13 -20 10 -8 -3 -14 0 -14 7 0 9 -4 9 -17 -1 -11 -10 -14 -10 -9 -1 7 12 -8 15 -116 16 -33 0 -48 4 -48 13 0 7 3 13 8 14 4 0 17 2 29 3 12 1 20 -1 17 -6 -3 -4 2 -5 10 -2 9 3 14 9 11 13 -2 4 2 8 10 8 18 0 19 -8 3 -27 -11 -13 -11 -13 1 -3 11 10 18 10 30 1 13 -10 14 -10 4 2 -18 20 -16 26 10 27 12 1 45 4 72 8 28 3 89 7 137 9 48 1 93 7 101 14 7 7 18 8 22 4 5 -4 6 0 2 10 -9 26 15 40 29 16z m-1582 -658 c12 -25 13 -30 2 -17 -14 18 -15 18 -26 0 -11 -17 -11 -17 -6 2 6 19 5 19 -8 2 -8 -11 -17 -14 -20 -8 -4 5 -2 12 4 16 6 4 7 11 4 17 -4 7 -2 8 5 4 6 -4 14 0 17 9 8 19 7 19 28 -25z m-345 2 c-5 -13 -6 -28 -3 -34 5 -7 2 -8 -5 -3 -7 4 -11 16 -8 26 3 11 1 17 -4 13 -5 -3 -9 -12 -9 -21 0 -9 -3 -13 -7 -10 -9 10 16 54 32 54 10 0 11 -6 4 -25z"/> <path d="M2865 4410 c-4 -6 -12 -7 -18 -4 -9 5 -9 4 0 -6 9 -10 16 -9 34 4 18 12 20 16 7 16 -9 0 -20 -5 -23 -10z"/> <path d="M1949 3923 c-7 -13 -15 -19 -18 -14 -3 5 -19 -2 -34 -15 -27 -23 -29 -45 -4 -43 8 0 8 2 -1 6 -10 4 -9 9 4 24 19 21 39 26 28 7 -4 -7 9 3 29 22 20 19 37 35 37 36 0 0 -6 1 -14 1 -8 0 -20 -11 -27 -24z"/> <path d="M4486 3915 c4 -22 7 -46 7 -52 0 -7 4 -13 9 -13 11 0 2 66 -13 89 -7 12 -8 6 -3 -24z"/> <path d="M4494 3824 c3 -9 6 -18 6 -20 0 -3 4 -3 10 1 11 7 2 35 -12 35 -6 0 -7 -7 -4 -16z"/> <path d="M4490 3730 c0 -11 5 -20 10 -20 6 0 10 9 10 20 0 11 -4 20 -10 20 -5 0 -10 -9 -10 -20z"/> <path d="M1654 3683 c3 -6 0 -13 -6 -16 -7 -2 -10 -8 -5 -12 4 -5 13 -3 19 3 9 9 9 15 -1 25 -9 8 -12 8 -7 0z"/> <path d="M4568 3370 c-16 -18 -16 -19 2 -17 11 1 17 3 15 6 -3 2 0 10 6 18 17 20 -4 14 -23 -7z"/> <path d="M4483 3202 c0 -14 -8 -31 -17 -38 -17 -12 -21 -24 -8 -24 5 0 15 12 23 28 8 15 18 30 22 33 4 3 2 11 -5 17 -10 8 -13 4 -15 -16z"/> <path d="M4415 3090 c-10 -11 -14 -20 -10 -20 4 0 -2 -9 -15 -20 -13 -11 -21 -22 -19 -24 2 -2 17 7 32 20 15 13 22 24 15 24 -8 1 -6 6 6 15 11 8 17 17 14 20 -2 3 -13 -4 -23 -15z"/> <path d="M4438 3043 c-10 -2 -18 -9 -18 -14 0 -14 16 -11 30 6 7 8 11 14 9 14 -2 -1 -12 -3 -21 -6z"/> <path d="M4353 3014 c4 -4 1 -14 -6 -22 -10 -13 -9 -14 11 -3 27 14 27 17 5 25 -10 4 -14 4 -10 0z"/> <path d="M4319 2968 c9 -12 10 -18 2 -18 -6 0 -11 -4 -11 -10 0 -15 17 -12 23 4 3 8 -2 20 -11 28 -15 12 -16 11 -3 -4z"/> <path d="M4330 2887 c-8 -7 -21 -24 -28 -37 l-13 -25 19 21 c15 18 22 20 38 11 17 -9 17 -9 6 6 -8 9 -11 21 -7 27 8 13 4 12 -15 -3z"/> <path d="M4219 2838 c-15 -15 -24 -30 -20 -34 3 -4 -1 -5 -11 -1 -11 4 -15 1 -14 -11 3 -18 -32 -49 -49 -44 -5 2 -5 -2 2 -9 10 -10 18 -7 39 14 15 15 23 27 20 27 -4 0 11 18 33 39 23 22 38 41 34 43 -5 2 -20 -8 -34 -24z"/> <path d="M4085 2721 c-3 -5 -1 -12 5 -16 6 -4 7 -11 4 -17 -4 -5 5 -2 20 7 33 22 33 27 0 19 -19 -5 -25 -4 -20 5 4 6 5 11 2 11 -3 0 -7 -4 -11 -9z"/> <path d="M4185 2700 c-4 -6 -10 -8 -15 -5 -4 3 -13 -2 -20 -10 -10 -12 -10 -15 3 -15 14 0 47 25 47 36 0 8 -9 4 -15 -6z"/> <path d="M4056 2662 c-2 -4 -1 -14 5 -22 7 -13 9 -12 9 2 0 9 6 19 13 21 7 3 6 6 -5 6 -9 1 -19 -3 -22 -7z"/> <path d="M4120 2649 c-12 -8 -11 -9 5 -7 12 2 19 -2 17 -10 -1 -8 2 -11 8 -7 8 5 7 11 -1 21 -14 17 -10 16 -29 3z"/> <path d="M880 2621 c-6 -12 -7 -21 -1 -21 10 0 24 30 17 37 -2 3 -9 -5 -16 -16z"/> <path d="M3998 2598 c9 -9 15 -9 24 0 9 9 7 12 -12 12 -19 0 -21 -3 -12 -12z"/> <path d="M856 2563 c-3 -10 -9 -24 -12 -30 -3 -7 -1 -13 4 -13 5 0 13 12 16 26 8 30 2 44 -8 17z"/> <path d="M3948 2562 c-7 -26 1 -28 28 -6 15 12 16 15 2 10 -9 -3 -18 0 -21 7 -2 6 -6 1 -9 -11z"/> <path d="M1042 2543 c-24 -66 -37 -120 -35 -146 1 -15 -2 -25 -6 -22 -11 6 -23 -54 -14 -68 4 -7 0 -8 -13 -3 -15 6 -17 5 -6 -5 14 -15 16 -33 2 -24 -6 4 -10 -7 -10 -24 0 -17 5 -31 11 -31 6 0 9 9 6 20 -3 11 -2 18 3 15 4 -3 11 17 16 43 4 26 8 49 9 52 1 3 4 12 7 20 22 61 38 132 32 142 -4 6 -3 8 3 5 9 -6 22 21 23 46 0 18 -19 4 -28 -20z"/> <path d="M4021 2556 c-9 -11 -8 -15 5 -20 9 -4 19 -4 22 -1 3 3 0 5 -7 5 -8 0 -11 7 -7 15 7 19 2 19 -13 1z"/> <path d="M3896 2494 c-10 -25 1 -29 14 -5 6 12 7 21 1 21 -5 0 -12 -7 -15 -16z"/> <path d="M3815 2463 c-16 -12 -16 -14 -3 -10 10 3 20 2 23 -3 4 -6 1 -10 -5 -10 -6 0 -8 -5 -4 -12 6 -9 9 -9 12 0 2 7 10 12 19 12 8 0 13 6 10 13 -2 6 -12 11 -22 9 -10 -2 -14 1 -10 7 9 15 4 13 -20 -6z"/> <path d="M3794 2405 c-12 -8 -24 -11 -28 -7 -4 3 -4 -1 -1 -10 6 -14 10 -15 26 -5 10 6 21 17 23 24 7 16 5 16 -20 -2z"/> <path d="M3726 2355 c-15 -15 -14 -35 1 -35 4 0 3 3 0 7 -4 3 1 12 11 19 9 7 14 15 11 19 -4 3 -14 -1 -23 -10z"/> <path d="M3820 2351 c10 -7 11 -11 3 -11 -7 0 -17 -10 -23 -22 -10 -21 -10 -21 3 -5 8 9 20 17 26 17 17 0 9 23 -10 28 -11 3 -11 2 1 -7z"/> <path d="M3664 2308 c-3 -5 -11 -5 -17 -2 -9 5 -9 4 -1 -5 9 -10 18 -10 40 2 27 15 27 16 6 14 -13 -1 -26 -5 -28 -9z"/> <path d="M3614 2278 c3 -11 0 -18 -8 -18 -7 0 -13 -7 -13 -15 0 -10 4 -12 12 -5 7 5 15 7 18 3 11 -11 7 21 -4 37 -9 13 -10 12 -5 -2z"/> <path d="M3722 2273 c12 -15 32 -18 24 -4 -4 5 0 11 6 14 7 2 1 4 -14 3 -20 -1 -24 -4 -16 -13z"/> <path d="M3680 2252 c0 -7 -6 -12 -14 -12 -8 0 -17 -4 -20 -9 -4 -5 4 -7 16 -3 15 4 19 2 14 -7 -6 -9 -3 -9 13 0 11 8 17 16 13 19 -4 3 -10 9 -14 14 -5 5 -8 4 -8 -2z"/> <path d="M955 2179 c4 -19 2 -28 -5 -24 -5 3 -10 1 -10 -4 0 -6 5 -11 11 -11 8 0 7 -5 -1 -15 -14 -17 -7 -31 10 -20 6 4 10 23 9 44 -2 20 1 42 5 49 4 7 1 12 -9 12 -12 0 -14 -7 -10 -31z"/> <path d="M3605 2201 c-2 -4 12 -7 30 -7 19 0 32 3 29 5 -7 8 -54 9 -59 2z"/> <path d="M3474 2159 c-19 -22 -19 -22 3 -10 24 12 39 31 25 31 -5 0 -17 -10 -28 -21z"/> <path d="M3425 2131 c3 -5 -1 -12 -7 -14 -8 -4 -7 -6 4 -6 23 -1 32 15 12 23 -8 3 -13 2 -9 -3z"/> <path d="M943 2055 c-6 -19 -7 -33 -2 -29 5 3 9 1 9 -5 0 -5 -6 -12 -12 -14 -10 -4 -10 -6 0 -6 7 -1 10 -5 7 -11 -3 -5 -1 -10 4 -10 7 0 11 23 11 55 0 30 -1 55 -3 55 -2 0 -8 -16 -14 -35z"/> <path d="M3295 2040 c-19 -8 -19 -9 2 -9 12 -1 25 4 28 9 7 12 -2 12 -30 0z"/> <path d="M3213 1985 c-15 -16 -16 -25 -5 -25 4 0 13 9 20 20 14 23 3 26 -15 5z"/> <path d="M939 1956 c9 -11 9 -20 2 -34 -10 -18 -6 -32 9 -32 3 0 6 18 6 40 0 28 -4 40 -14 40 -11 0 -12 -3 -3 -14z"/> <path d="M3058 1898 c5 -19 32 -26 32 -8 0 6 7 10 16 10 8 0 12 5 9 10 -4 6 -19 9 -34 8 -22 -2 -27 -6 -23 -20z"/> <path d="M650 1875 c0 -19 2 -35 4 -35 2 0 6 16 8 35 2 19 0 35 -4 35 -4 0 -8 -16 -8 -35z"/> <path d="M3154 1892 c4 -6 2 -20 -3 -30 -7 -14 -6 -19 2 -19 16 0 20 44 5 53 -7 4 -8 3 -4 -4z"/> <path d="M929 1867 c5 -12 10 -26 11 -32 1 -5 6 -17 11 -25 6 -11 8 -4 7 21 -1 23 -9 41 -20 48 -15 10 -16 8 -9 -12z"/> <path d="M1014 1868 c0 -12 7 -23 14 -24 7 -1 8 0 2 3 -5 2 -10 9 -10 14 0 6 4 7 10 4 6 -3 7 1 4 9 -9 23 -21 19 -20 -6z"/> <path d="M3040 1872 c0 -4 -14 -13 -32 -20 -17 -6 -29 -14 -26 -17 7 -7 68 25 68 36 0 5 -2 9 -5 9 -3 0 -5 -4 -5 -8z"/> <path d="M2940 1831 c0 -6 -9 -20 -20 -31 -11 -11 -16 -20 -11 -20 6 0 16 9 24 20 8 11 17 17 20 13 4 -3 7 -1 7 5 0 6 -4 14 -10 17 -5 3 -10 1 -10 -4z"/> <path d="M635 1758 c-3 -29 -9 -62 -11 -73 -4 -16 -3 -17 5 -5 10 17 26 130 18 130 -3 0 -8 -24 -12 -52z"/> <path d="M947 1770 c3 -11 9 -20 14 -20 5 0 9 -9 9 -20 0 -11 3 -20 8 -20 10 0 34 -58 28 -68 -3 -5 4 -9 17 -8 12 0 21 -4 20 -11 -1 -6 4 -10 12 -9 26 4 24 11 -10 36 -19 14 -36 32 -40 40 -3 8 -14 31 -24 50 -11 19 -17 38 -14 43 2 4 -2 7 -10 7 -10 0 -13 -7 -10 -20z"/> <path d="M2855 1770 c-10 -11 -13 -20 -8 -20 13 0 38 29 31 35 -3 3 -13 -4 -23 -15z"/> <path d="M2776 1725 c-11 -8 -15 -15 -10 -15 6 0 19 7 30 15 10 8 15 14 9 14 -5 0 -19 -6 -29 -14z"/> <path d="M2699 1679 c-23 -19 -23 -20 -2 -10 12 6 25 16 28 21 10 16 -1 12 -26 -11z"/> <path d="M2145 1669 c-4 -5 -10 -7 -14 -5 -4 3 -13 1 -21 -5 -12 -7 -11 -9 5 -8 11 1 31 4 45 8 21 6 22 8 8 14 -10 3 -20 2 -23 -4z"/> <path d="M2630 1651 c-8 -6 -18 -7 -24 -4 -5 3 -6 1 -2 -5 6 -10 -11 -17 -35 -14 -4 1 -15 -8 -24 -18 -11 -12 -13 -20 -6 -20 6 0 14 6 17 13 3 8 11 14 18 14 22 0 76 25 76 34 0 11 -1 11 -20 0z"/> <path d="M2018 1645 c-3 -3 -19 -7 -36 -10 -37 -4 -52 -12 -52 -27 0 -6 6 -6 15 2 9 7 18 10 22 7 3 -4 15 -1 27 5 11 7 37 15 56 19 l35 7 -31 1 c-17 0 -33 -1 -36 -4z"/> <path d="M1786 1598 c-9 -5 -21 -6 -26 -3 -12 8 -130 -15 -130 -25 0 -4 21 -3 48 2 26 6 61 10 77 10 17 1 35 4 40 8 6 3 23 7 39 8 43 3 45 12 3 10 -19 -1 -42 -5 -51 -10z"/> <path d="M1600 1580 c-8 -5 -11 -12 -7 -16 4 -4 13 -2 19 4 15 15 7 24 -12 12z"/> <path d="M1210 1571 c8 -5 17 -8 20 -6 4 2 30 1 59 -4 28 -4 54 -4 57 0 3 5 -5 9 -18 9 -13 1 -48 3 -78 6 -38 3 -50 2 -40 -5z"/> <path d="M1420 1569 c-35 -6 -35 -6 -5 -9 17 -1 40 -1 53 0 12 1 22 -4 22 -12 0 -10 2 -10 9 1 5 8 18 12 30 8 12 -3 19 -1 15 4 -3 5 -1 9 5 9 5 0 11 -5 13 -12 3 -8 7 -6 11 4 5 14 -3 16 -56 15 -34 -1 -78 -5 -97 -8z"/> <path d="M2452 1565 c-19 -10 -20 -14 -8 -18 9 -4 16 -2 16 3 0 6 7 10 15 10 8 0 15 5 15 10 0 13 -9 11 -38 -5z"/> <path d="M2380 1530 c-8 -5 -11 -12 -7 -16 4 -4 15 0 24 9 18 18 8 23 -17 7z"/> <path d="M2302 1494 c-10 -12 -10 -14 2 -14 17 0 30 16 19 23 -5 3 -14 -1 -21 -9z"/> <path d="M2238 1468 c-16 -5 -28 -14 -28 -19 0 -5 14 -3 30 6 17 9 30 18 30 20 0 3 -1 5 -2 4 -2 0 -15 -5 -30 -11z"/> <path d="M1980 1378 c-21 -9 -22 -12 -8 -15 10 -3 25 3 34 11 18 18 10 19 -26 4z"/> <path d="M3150 1365 c0 -6 5 -16 11 -22 7 -7 6 -15 -5 -26 -14 -13 -14 -16 0 -27 12 -11 13 -10 8 4 -3 9 -2 16 4 16 6 0 9 6 8 13 -3 17 -25 54 -26 42z"/> <path d="M2716 1345 c-14 -38 2 -83 20 -54 4 8 3 9 -4 5 -8 -5 -12 2 -12 20 0 25 4 22 41 -29 22 -32 42 -57 45 -57 3 0 -10 21 -29 48 -19 26 -39 55 -44 66 -9 17 -11 17 -17 1z"/> <path d="M2760 1339 c0 -13 4 -18 12 -13 6 4 17 -1 24 -11 8 -10 16 -16 19 -13 3 2 -8 17 -25 31 -28 26 -30 26 -30 6z"/> <path d="M2980 1334 c68 -39 76 -47 53 -56 -17 -7 -17 -8 0 -5 10 1 19 7 19 12 2 11 -88 75 -106 75 -6 0 9 -12 34 -26z"/> <path d="M3126 1344 c-3 -9 -4 -19 -1 -22 3 -3 5 1 5 9 0 11 2 11 10 -1 5 -8 10 -10 10 -5 0 6 -4 16 -9 23 -6 11 -10 10 -15 -4z"/> <path d="M2523 1336 c10 -14 9 -28 -2 -22 -10 6 -25 -24 -16 -32 3 -3 5 0 5 7 0 7 10 10 25 7 31 -6 31 -1 3 27 -13 12 -20 18 -15 13z"/> <path d="M2553 1334 c9 -11 17 -24 17 -29 0 -4 8 -14 17 -21 24 -17 7 -32 -17 -16 -12 7 -20 8 -20 2 0 -5 5 -10 11 -10 5 0 8 -3 6 -7 -3 -5 1 -21 8 -38 9 -19 13 -23 12 -10 -2 11 -6 26 -10 33 -5 7 -4 12 3 12 6 0 15 -11 20 -25 12 -31 20 -33 12 -3 -4 15 -2 19 7 13 8 -5 7 3 -3 23 -9 17 -20 34 -26 37 -5 3 -10 11 -10 17 0 6 9 3 20 -7 11 -10 20 -13 20 -8 0 14 -29 37 -37 29 -3 -3 -16 2 -27 11 -21 18 -21 18 -3 -3z"/> <path d="M2620 1325 c40 -48 43 -51 32 -30 -6 11 -21 29 -34 40 -22 19 -22 19 2 -10z"/> <path d="M2653 1325 c8 -16 33 -43 56 -60 37 -28 51 -45 34 -45 -3 0 -16 8 -27 17 -18 15 -18 14 1 -7 17 -18 26 -21 34 -13 9 9 9 16 -1 28 -9 11 -9 15 -1 15 7 0 9 5 5 11 -4 8 -9 7 -15 -2 -6 -11 -20 -2 -55 36 -37 40 -43 44 -31 20z"/> <path d="M1828 1333 c-10 -2 -18 -8 -18 -13 0 -12 33 -5 38 8 2 7 2 11 0 11 -1 -1 -11 -3 -20 -6z"/> <path d="M2814 1333 c4 -7 15 -17 26 -23 15 -8 17 -7 12 12 -3 13 -7 17 -10 10 -3 -10 -7 -10 -20 0 -12 10 -14 10 -8 1z"/> <path d="M2904 1318 c18 -31 12 -36 -14 -13 -14 13 -17 13 -17 0 0 -8 4 -12 8 -9 4 2 10 0 13 -5 3 -5 -2 -12 -11 -15 -9 -4 -20 -1 -25 6 -4 7 -8 9 -8 5 0 -4 7 -19 16 -32 9 -14 12 -25 7 -25 -5 0 -16 11 -23 25 -7 14 -17 25 -23 25 -5 0 6 -18 23 -40 17 -22 34 -40 36 -40 2 0 2 15 0 34 -4 28 -1 35 21 45 20 9 29 9 42 -1 14 -12 15 -11 2 5 -8 10 -9 17 -3 17 6 0 14 -4 17 -10 3 -5 11 -10 16 -10 6 0 7 5 4 10 -3 6 -2 10 4 10 5 0 12 -5 14 -10 3 -6 4 -5 3 2 -2 7 -11 13 -22 14 -34 2 -39 4 -26 13 11 7 10 9 -3 14 -11 5 -14 3 -9 -5 5 -8 2 -9 -11 -4 -15 5 -16 4 -5 -9 7 -8 8 -15 2 -15 -5 0 -17 10 -27 23 -16 21 -16 21 -1 -5z"/> <path d="M1768 1313 c-16 -2 -28 -9 -28 -14 0 -11 39 -2 55 12 5 5 7 8 5 8 -3 -1 -17 -4 -32 -6z"/> <path d="M1622 1275 c-18 -10 -20 -14 -8 -18 8 -3 20 1 27 9 16 20 9 23 -19 9z"/> <path d="M2465 1272 c13 -9 17 -32 6 -32 -5 0 -11 5 -13 11 -2 7 -19 13 -37 14 -19 2 -28 0 -22 -5 22 -13 -16 -41 -47 -35 -23 4 -22 3 7 -11 28 -12 32 -18 20 -26 -12 -8 -12 -9 1 -5 8 2 24 -3 35 -12 11 -8 7 -1 -9 17 -32 35 -25 43 12 13 12 -11 22 -26 22 -35 0 -8 4 -17 9 -20 5 -4 7 4 3 16 -5 21 -4 22 11 9 15 -12 17 -12 11 3 -3 9 -11 16 -18 16 -6 0 -2 7 8 15 14 11 16 15 5 15 -12 0 -12 2 0 9 22 14 24 51 3 51 -9 0 -13 -4 -7 -8z m-20 -22 c-3 -5 -2 -10 4 -10 13 0 7 -33 -8 -38 -17 -6 -41 17 -35 33 3 8 13 16 22 18 10 3 18 5 20 6 2 0 0 -3 -3 -9z"/> <path d="M2634 1268 c1 -7 6 -19 11 -27 5 -9 5 -16 -2 -18 -6 -2 -9 -13 -6 -24 4 -15 2 -18 -12 -12 -13 5 -16 3 -10 -6 6 -10 2 -11 -16 -6 -13 3 -19 3 -14 -2 18 -14 17 -36 0 -29 -9 3 -19 6 -21 6 -3 0 -2 6 2 13 4 6 4 9 -1 5 -4 -4 -14 0 -21 10 -12 15 -12 15 -7 -5 3 -16 1 -23 -8 -23 -8 0 -2 -8 14 -18 15 -10 24 -22 20 -27 -5 -4 -2 -5 5 -1 7 4 10 11 7 16 -3 4 5 10 16 13 13 4 18 10 14 18 -5 7 -3 10 4 8 7 -3 12 -8 11 -13 -2 -11 20 -26 38 -26 17 0 15 25 -3 40 -14 11 -13 14 2 25 15 11 16 16 3 41 -7 16 -14 32 -14 36 -1 3 -4 9 -8 13 -3 4 -6 1 -4 -7z m14 -110 c7 -7 12 -16 12 -20 0 -15 -15 -8 -28 12 -13 22 -3 27 16 8z"/> <path d="M2661 1264 c-1 -6 9 -19 22 -30 12 -10 17 -12 10 -5 -6 7 -9 21 -6 30 4 13 3 13 -5 2 -8 -11 -10 -11 -15 0 -3 8 -6 9 -6 3z"/> <path d="M2910 1254 c0 -9 9 -18 20 -21 11 -3 20 -9 20 -13 0 -11 -34 -7 -42 5 -5 6 -8 3 -8 -7 0 -9 5 -20 10 -23 6 -3 10 -1 10 6 0 8 4 8 15 -1 12 -10 15 -10 15 0 0 10 3 10 15 0 8 -7 15 -9 15 -4 0 5 10 -2 21 -16 18 -23 19 -23 9 -2 -9 18 -8 22 5 22 9 0 14 -4 10 -9 -3 -5 0 -13 6 -17 8 -4 9 -3 5 4 -4 7 -3 12 3 12 5 0 12 -6 14 -12 4 -10 6 -10 6 0 1 8 6 10 14 6 7 -4 9 -3 4 2 -5 5 -13 10 -18 10 -5 1 -13 2 -18 3 -5 0 -17 8 -25 17 -15 14 -16 14 -17 -3 0 -14 -3 -12 -11 7 -6 14 -11 27 -10 30 0 3 -9 7 -20 7 -21 2 -21 2 1 -13 11 -8 21 -21 21 -29 0 -8 -15 0 -35 21 -25 24 -35 30 -35 18z"/> <path d="M2510 1253 c5 -2 10 -12 10 -21 0 -15 -2 -15 -10 -2 -9 13 -10 13 -10 0 0 -8 5 -22 10 -30 8 -13 10 -12 10 3 0 10 4 15 10 12 6 -4 7 2 1 16 -4 13 -13 24 -20 25 -6 1 -7 0 -1 -3z"/> <path d="M3023 1238 c0 -13 1 -17 4 -10 3 6 9 10 13 7 5 -3 21 -2 37 1 25 7 25 8 8 15 -28 11 -43 10 -25 -1 13 -8 12 -10 -2 -10 -10 0 -18 5 -18 10 0 21 -16 9 -17 -12z"/> <path d="M2548 1215 c2 -14 8 -27 12 -30 4 -2 5 7 2 20 -2 14 -8 27 -12 30 -4 2 -5 -7 -2 -20z"/> <path d="M1260 1213 c-23 -12 -20 -13 31 -11 34 2 56 8 56 14 0 16 -55 13 -87 -3z"/> <path d="M2131 1194 c-40 -20 -82 -36 -92 -37 -10 -1 -19 -4 -19 -8 0 -6 -83 -41 -109 -45 -7 -2 -18 -7 -24 -13 -6 -6 -20 -11 -32 -11 -11 -1 -36 -9 -55 -20 -28 -15 -31 -19 -14 -20 12 0 27 7 34 15 7 8 16 12 21 9 5 -3 23 2 41 10 94 42 203 86 214 86 7 0 19 6 26 13 7 8 24 17 38 20 30 8 56 24 50 31 -3 2 -38 -11 -79 -30z"/> <path d="M903 1208 c9 -5 23 -8 29 -7 7 1 21 -1 30 -5 10 -5 30 -3 45 3 27 11 27 11 -9 7 -20 -3 -39 -1 -43 2 -3 4 -20 7 -38 8 -24 1 -27 0 -14 -8z"/> <path d="M1190 1210 c-20 -12 -5 -24 16 -12 9 5 12 12 7 15 -5 3 -15 2 -23 -3z"/> <path d="M1105 1200 c-15 -6 -11 -8 18 -8 20 0 37 3 37 7 0 10 -31 10 -55 1z"/> <path d="M2685 1199 c-4 -6 -4 -13 -1 -16 3 -4 6 -1 6 6 0 7 5 9 11 6 6 -4 8 -14 5 -22 -4 -11 -1 -13 15 -8 11 4 26 1 34 -5 11 -9 15 -9 15 -1 0 8 11 6 33 -4 27 -13 29 -14 12 -1 -11 9 -25 20 -32 26 -15 13 -26 13 -18 0 3 -5 1 -10 -4 -10 -6 0 -11 7 -11 15 0 8 -5 15 -11 15 -5 0 -7 -5 -3 -11 4 -7 1 -10 -7 -7 -8 3 -13 11 -11 17 3 14 -25 15 -33 0z"/> <path d="M2309 1179 c20 -16 22 -22 11 -29 -8 -5 -19 -6 -25 -3 -5 4 -7 2 -3 -2 14 -15 56 -15 54 1 -2 15 -41 54 -53 54 -4 -1 3 -10 16 -21z"/> <path d="M2790 1191 c0 -6 5 -11 10 -11 6 0 22 -12 36 -26 15 -14 24 -20 22 -13 -6 18 -68 64 -68 50z"/> <path d="M2885 1181 c-3 -6 -1 -10 5 -9 7 2 14 -5 15 -15 2 -11 6 -22 9 -25 4 -3 5 4 3 16 -4 29 -22 48 -32 33z"/> <path d="M2364 1163 c20 -24 32 -31 20 -11 -5 8 -2 9 10 5 11 -4 15 -3 11 4 -4 6 -13 8 -20 5 -7 -2 -19 1 -26 7 -7 7 -5 2 5 -10z"/> <path d="M2470 1143 c0 -7 8 -17 18 -22 14 -7 19 -6 19 4 0 8 -5 11 -10 8 -5 -3 -13 1 -18 8 -6 10 -9 10 -9 2z"/> <path d="M2868 1131 c-15 -18 -15 -20 -1 -25 9 -4 18 -4 21 -1 3 3 0 5 -6 5 -6 0 -9 7 -6 15 4 8 11 12 17 8 6 -3 7 -1 3 5 -9 15 -9 15 -28 -7z"/> <path d="M2231 1133 c-1 -6 3 -14 9 -18 5 -3 7 -12 4 -19 -3 -8 -1 -17 5 -21 7 -4 8 1 4 12 -6 16 -5 17 13 3 18 -14 18 -14 3 5 -9 11 -14 27 -12 35 4 12 3 12 -5 1 -8 -11 -10 -11 -15 0 -3 9 -6 10 -6 2z"/> <path d="M2411 1123 c7 -10 14 -20 16 -22 6 -10 21 12 16 25 -5 13 -7 13 -14 2 -7 -10 -9 -10 -9 0 0 6 -5 12 -11 12 -8 0 -7 -6 2 -17z"/> <path d="M2135 1096 c1 -20 4 -39 7 -41 8 -8 8 47 -1 62 -5 10 -7 3 -6 -21z"/> <path d="M2810 1120 c0 -5 -8 -7 -17 -4 -14 5 -15 4 -4 -4 16 -12 44 -4 35 9 -7 12 -14 11 -14 -1z"/> <path d="M2116 1097 c3 -8 0 -18 -7 -23 -7 -4 -10 -3 -5 4 3 6 2 13 -3 16 -7 5 -8 -22 -1 -31 2 -2 3 -22 4 -45 1 -31 5 -42 19 -44 15 -2 16 0 6 12 -6 7 -9 21 -5 29 4 11 2 14 -6 9 -8 -5 -9 -2 -5 10 15 39 18 64 8 70 -6 4 -9 1 -5 -7z"/> <path d="M2585 1100 c-3 -6 2 -13 12 -17 10 -3 21 -7 24 -9 3 -2 6 3 6 12 0 10 -7 12 -20 8 -13 -4 -17 -2 -13 5 4 6 5 11 2 11 -3 0 -8 -5 -11 -10z"/> <path d="M2653 1104 c9 -3 15 -10 12 -15 -4 -5 -1 -17 4 -26 7 -12 10 -13 11 -4 0 8 6 11 16 7 9 -3 12 -2 9 5 -4 6 -13 8 -21 5 -10 -4 -14 0 -12 11 2 11 -4 18 -17 20 -16 1 -16 1 -2 -3z"/> <path d="M2408 1078 c4 -16 2 -19 -9 -13 -12 8 -12 6 0 -8 7 -9 14 -17 15 -17 7 0 4 50 -3 55 -5 3 -7 -5 -3 -17z"/> <path d="M2041 1074 c-10 -12 -11 -18 -1 -27 9 -9 11 -8 8 3 -2 8 2 14 9 13 7 -2 10 4 7 12 -7 18 -6 18 -23 -1z"/> <path d="M2309 1065 c-8 -32 -21 -59 -37 -77 -8 -10 -12 -18 -8 -18 13 0 36 28 36 43 0 7 3 17 7 21 8 7 13 36 7 36 -2 0 -5 -2 -5 -5z"/> <path d="M1710 1030 c-26 -14 -30 -19 -15 -19 11 0 31 8 45 19 32 25 15 25 -30 0z"/> <path d="M1963 1034 c1 -11 13 -30 26 -44 l24 -25 -23 40 c-30 51 -29 50 -27 29z"/> <path d="M2405 1017 c11 -6 24 -12 28 -12 4 0 12 -7 17 -15 5 -8 10 -10 10 -5 -1 20 -25 41 -50 42 -24 2 -24 1 -5 -10z"/> <path d="M1630 1003 l-35 -12 33 2 c19 1 36 5 39 10 8 14 0 14 -37 0z"/> <path d="M2157 1005 c-4 -8 0 -27 8 -42 10 -18 15 -22 15 -11 0 9 -4 20 -10 23 -5 3 -10 11 -10 16 0 6 4 7 10 4 6 -3 7 1 4 9 -8 20 -10 20 -17 1z"/> <path d="M2201 1009 c0 -9 6 -22 14 -29 10 -9 15 -9 15 -1 0 6 -4 11 -9 11 -5 0 -12 8 -14 18 -4 14 -5 14 -6 1z"/> <path d="M2483 995 c-10 -11 -9 -13 7 -12 20 1 26 12 13 20 -5 3 -14 -1 -20 -8z"/> <path d="M1557 984 c6 -16 19 -18 27 -5 3 5 -3 11 -13 14 -14 3 -18 1 -14 -9z"/> <path d="M2037 994 c-3 -3 -3 -13 0 -21 3 -8 -4 -27 -15 -42 -21 -29 -16 -53 13 -57 15 -2 15 0 2 20 -13 19 -13 24 0 41 8 11 19 19 25 17 6 -2 5 5 -3 14 -13 16 -12 17 5 11 16 -6 17 -5 6 8 -13 16 -23 19 -33 9z"/> <path d="M1926 951 c-28 -44 -31 -51 -17 -51 5 0 12 11 15 24 3 14 13 32 22 41 9 9 14 18 11 21 -3 3 -17 -12 -31 -35z"/> <path d="M1974 961 c1 -25 30 -38 43 -19 3 7 1 8 -5 4 -7 -4 -12 -1 -12 6 0 10 -2 10 -9 -1 -7 -11 -10 -9 -14 10 l-4 24 1 -24z"/> <path d="M1863 967 c-3 -6 -1 -7 6 -3 6 4 14 0 17 -8 3 -9 11 -16 16 -16 7 0 6 5 -1 13 -6 8 -9 16 -6 19 3 2 -2 5 -10 5 -9 0 -19 -5 -22 -10z"/> <path d="M1450 954 l-45 -14 43 4 c24 3 46 7 49 10 13 12 -4 12 -47 0z"/> <path d="M2314 952 c0 -10 6 -19 13 -19 7 0 9 5 6 10 -4 7 1 8 13 4 18 -7 18 -7 0 8 -26 20 -32 19 -32 -3z"/> <path d="M2233 941 c-1 -13 3 -18 12 -15 8 3 11 12 8 20 -7 20 -18 17 -20 -5z"/> <path d="M2072 937 c-6 -7 -7 -19 -3 -26 6 -9 10 -5 13 13 6 30 5 31 -10 13z"/> <path d="M1840 920 c0 -5 7 -10 15 -10 8 0 15 5 15 10 0 6 -7 10 -15 10 -8 0 -15 -4 -15 -10z"/> <path d="M1880 861 c0 -7 -4 -9 -10 -6 -5 3 -10 -2 -10 -12 0 -16 1 -16 17 0 9 9 14 20 10 23 -4 4 -7 2 -7 -5z"/> <path d="M3910 4296 c0 -16 53 -46 79 -46 13 1 11 5 -6 19 -12 10 -19 22 -15 26 4 4 -3 2 -15 -4 -19 -10 -22 -9 -17 4 4 10 0 15 -10 15 -9 0 -16 -6 -16 -14z"/> <path d="M3787 4187 l-127 -62 74 -73 c67 -65 77 -71 95 -61 19 12 19 14 -10 48 -32 40 -38 78 -12 88 12 5 44 -22 121 -103 138 -145 160 -173 141 -185 -8 -5 -18 -10 -23 -12 -11 -4 14 -45 32 -52 8 -3 40 10 71 29 32 19 68 37 79 41 l22 6 -21 29 c-18 23 -26 27 -44 20 -20 -8 -32 0 -93 68 -38 42 -97 104 -131 136 -33 33 -61 63 -61 68 0 19 52 5 101 -27 31 -22 59 -33 68 -30 12 5 -1 22 -54 71 -38 35 -77 64 -85 64 -8 0 -72 -28 -143 -63z m97 -2 c-4 -8 -11 -15 -18 -16 -6 0 -2 -4 9 -9 18 -8 17 -9 -7 -9 -34 -1 -37 20 -5 35 12 7 23 12 24 13 1 0 0 -6 -3 -14z m-124 -69 c0 -8 -4 -17 -9 -20 -10 -7 -23 19 -14 28 11 11 23 6 23 -8z m390 -264 c0 -8 -9 -12 -22 -10 -13 2 -22 9 -20 16 1 6 -4 12 -10 12 -9 0 -9 3 1 9 17 11 51 -7 51 -27z"/> <path d="M2554 4120 c-80 -63 -183 -173 -206 -221 -14 -30 -28 -47 -36 -44 -7 2 -27 -2 -45 -9 -17 -8 -50 -21 -72 -29 -22 -8 -47 -18 -55 -21 -8 -3 -46 -24 -85 -45 -38 -22 -87 -49 -107 -61 -21 -11 -38 -25 -38 -31 0 -6 -4 -8 -9 -5 -4 3 -16 -3 -26 -14 -23 -25 -11 -26 23 -1 102 72 192 108 292 117 54 5 75 3 113 -14 126 -56 112 -208 -32 -350 -35 -34 -61 -65 -58 -69 18 -18 253 242 293 324 15 29 31 53 38 54 30 2 75 11 116 24 108 32 378 165 336 165 -5 0 -29 -11 -55 -24 -170 -87 -328 -95 -424 -22 -82 63 -72 147 30 249 63 63 66 73 7 27z m-124 -160 c-11 -21 -20 -50 -20 -64 0 -29 -18 -44 -26 -21 -7 16 44 125 58 125 5 0 -1 -18 -12 -40z m8 -122 c-9 -7 -6 -8 10 -5 19 4 21 3 12 -8 -10 -12 -16 -12 -36 2 -28 18 -31 25 -7 16 11 -4 14 -3 9 5 -5 8 -2 10 9 5 14 -5 14 -8 3 -15z m-15 -36 c26 -18 47 -37 47 -42 0 -21 -31 -8 -67 27 -20 21 -34 29 -30 19 5 -14 3 -17 -8 -13 -8 4 -17 2 -20 -3 -4 -6 3 -10 15 -10 17 0 20 -4 15 -22 -5 -18 -4 -20 4 -8 9 13 12 13 25 0 20 -21 26 -78 7 -66 -4 3 -6 16 -4 30 3 13 0 27 -6 30 -7 5 -8 1 -5 -9 6 -13 3 -14 -19 -4 -17 8 -23 17 -19 27 4 11 1 14 -11 9 -18 -7 -33 8 -17 18 6 4 8 11 5 16 -4 5 -1 9 4 9 6 0 11 6 11 14 0 21 19 15 73 -22z m-103 8 c0 -5 -12 -10 -27 -10 -16 -1 -57 -7 -93 -15 -36 -7 -66 -12 -68 -10 -2 1 25 12 60 23 70 22 128 27 128 12z m191 -11 c13 -20 11 -52 -2 -43 -7 4 -10 1 -7 -7 3 -8 11 -13 17 -11 8 1 8 -4 -1 -18 -8 -12 -15 -15 -19 -8 -4 6 -11 8 -17 4 -17 -10 -23 11 -7 24 18 15 20 40 3 40 -6 0 -3 7 8 15 16 13 16 14 2 9 -10 -3 -18 -2 -18 4 0 15 30 8 41 -9z m209 -35 c0 -1 -33 -7 -72 -14 -40 -6 -81 -14 -90 -16 -13 -4 -18 0 -18 13 0 16 10 18 90 18 50 0 90 0 90 -1z m-246 -98 c-12 -41 -55 -126 -63 -126 -5 0 0 17 10 37 10 21 19 54 19 73 0 42 6 51 26 43 10 -3 12 -13 8 -27z"/> <path d="M3570 4063 c-13 -3 -60 -26 -103 -51 -118 -70 -171 -101 -182 -106 -5 -3 3 -16 18 -30 27 -25 29 -25 54 -9 l26 17 117 -123 c65 -68 124 -135 131 -148 12 -22 11 -27 -7 -42 l-21 -17 24 -29 c14 -15 28 -24 31 -19 4 5 16 14 27 21 95 57 155 96 155 102 0 3 -9 17 -20 31 -15 20 -21 23 -31 13 -24 -24 -44 -13 -101 51 l-57 63 39 22 c21 11 42 21 48 21 5 0 46 -36 89 -80 69 -70 84 -80 114 -80 81 1 105 65 54 142 -16 24 -30 45 -32 47 -1 2 -9 -2 -18 -9 -13 -11 -12 -16 11 -43 19 -22 22 -33 14 -41 -8 -8 -24 3 -58 40 -61 67 -89 84 -138 84 -65 -1 -74 2 -65 19 12 20 -28 89 -43 74 -3 -4 -6 1 -6 11 0 9 -4 14 -10 11 -5 -3 -10 0 -10 8 0 7 8 13 18 12 25 -1 43 -15 37 -26 -4 -5 0 -16 9 -24 11 -11 16 -12 19 -2 5 11 7 2 11 -55 2 -24 24 -26 39 -5 11 17 0 67 -20 89 -43 47 -107 71 -163 61z m46 -89 c14 -10 32 -30 40 -46 16 -32 14 -35 -40 -74 l-28 -20 -54 53 c-30 30 -54 56 -54 59 0 7 82 44 98 44 7 0 24 -7 38 -16z m-146 -52 c0 -2 -5 0 -11 4 -8 4 -8 0 0 -15 7 -11 14 -21 17 -21 3 0 2 6 -2 13 -6 8 -3 8 9 -2 17 -13 10 -42 -13 -56 -14 -9 -12 8 3 25 10 12 9 12 -5 1 -24 -18 -41 -4 -34 28 5 21 4 23 -4 9 -6 -10 -16 -18 -21 -18 -6 0 -7 5 -4 10 3 6 -2 10 -12 10 -14 0 -12 4 10 18 15 9 27 20 27 24 0 4 9 0 20 -9 11 -10 20 -19 20 -21z m59 -84 c-12 -22 -29 -32 -29 -18 0 7 -7 9 -16 6 -16 -6 -12 6 14 36 19 22 45 2 31 -24z m186 33 c3 -5 1 -12 -5 -16 -5 -3 -10 0 -11 7 0 10 -2 10 -6 1 -2 -7 -11 -13 -19 -13 -12 0 -13 3 -2 15 15 16 34 19 43 6z m57 -24 c7 -7 23 -12 35 -11 15 1 20 -3 15 -14 -4 -11 -2 -13 8 -7 9 5 11 4 6 -3 -6 -11 5 -16 26 -13 4 0 4 -7 1 -16 -4 -9 -2 -14 3 -10 6 3 16 2 24 -4 13 -7 12 -9 -2 -9 -10 0 -18 -4 -18 -10 0 -6 9 -6 25 0 20 8 27 6 31 -5 4 -8 11 -12 17 -8 5 3 7 1 3 -5 -3 -5 -3 -12 1 -15 5 -2 3 -2 -4 -1 -7 2 -15 -1 -18 -6 -10 -17 -20 -12 -67 34 -26 24 -50 41 -54 38 -5 -4 -2 1 5 11 11 14 11 17 -1 17 -8 0 -24 9 -35 19 -12 11 -23 18 -26 15 -3 -3 -8 -1 -12 5 -9 15 21 14 37 -2z m-177 -57 c3 0 3 5 -1 12 -4 6 -3 8 4 4 5 -3 12 0 15 6 3 7 4 3 4 -9 -1 -13 -5 -24 -9 -24 -4 -1 -12 -2 -17 -3 -5 0 -12 -4 -16 -8 -4 -4 8 -5 27 -2 27 4 30 2 16 -6 -20 -12 -24 -30 -7 -30 5 0 7 5 4 10 -3 6 1 10 9 10 20 0 25 -11 15 -35 -4 -11 -8 -14 -8 -7 -1 7 -5 10 -11 7 -5 -3 -18 -1 -27 4 -10 6 -15 11 -10 11 12 0 -32 40 -46 40 -16 0 -20 40 -5 57 8 11 15 8 34 -12 13 -14 26 -25 29 -25z m79 -112 c-4 -13 -1 -16 10 -12 9 4 18 0 22 -10 3 -9 10 -13 15 -10 5 3 9 -5 9 -18 0 -17 3 -19 9 -9 11 17 23 -1 15 -23 -5 -13 -9 -14 -20 -5 -11 9 -14 8 -14 -4 0 -9 -5 -19 -12 -23 -7 -5 -9 -2 -6 8 4 8 1 15 -6 15 -7 0 -12 -7 -12 -16 1 -9 -3 -16 -9 -16 -5 0 -9 14 -7 30 1 22 0 26 -8 15 -6 -11 -9 -3 -7 27 2 36 0 40 -12 30 -11 -9 -13 -9 -8 0 4 6 3 14 -3 18 -19 12 -10 21 20 21 25 0 29 -3 24 -18z"/> <path d="M3896 3725 c4 -9 11 -14 16 -13 15 5 11 23 -6 26 -11 2 -14 -2 -10 -13z"/> <path d="M3533 3798 c5 -17 30 -17 33 0 1 7 0 8 -3 2 -2 -5 -9 -10 -14 -10 -6 0 -7 5 -4 10 3 6 1 10 -5 10 -7 0 -10 -6 -7 -12z"/> <path d="M3220 3855 c-7 -8 -18 -15 -24 -15 -6 0 -40 -21 -76 -46 -36 -25 -110 -75 -165 -111 -55 -37 -102 -68 -104 -70 -3 -2 7 -16 22 -30 25 -25 27 -26 45 -10 10 9 25 17 33 17 22 0 269 -264 269 -289 0 -6 -6 -14 -14 -17 -26 -10 -27 -36 -4 -61 12 -13 24 -20 27 -16 3 5 26 22 51 38 25 16 47 33 50 36 3 3 40 30 83 60 43 30 99 69 125 86 25 18 51 34 56 36 5 2 -2 16 -16 33 -100 115 -122 139 -127 141 -3 1 -14 -4 -24 -11 -16 -13 -16 -16 9 -64 23 -45 25 -54 14 -86 -6 -20 -15 -36 -19 -36 -4 0 -16 -8 -27 -19 -11 -10 -30 -24 -42 -30 -19 -10 -25 -8 -51 21 -80 92 -84 98 -71 113 19 23 57 18 83 -11 22 -23 27 -24 46 -13 27 17 27 19 -6 56 -134 148 -132 147 -158 133 l-25 -13 20 -32 c18 -29 18 -33 4 -53 -8 -12 -20 -22 -26 -22 -12 0 -108 99 -108 110 1 14 100 63 137 68 36 4 48 0 81 -26 37 -30 39 -30 63 -14 l25 17 -72 72 c-61 62 -73 71 -84 58z m30 -55 c12 0 20 -29 9 -35 -5 -4 -8 -1 -7 7 2 7 -3 12 -9 11 -7 -2 -13 3 -13 10 0 8 -4 7 -10 -3 -8 -13 -10 -12 -10 4 0 12 5 16 16 12 9 -3 19 -6 24 -6z m-205 -131 c-4 -5 -1 -9 5 -9 6 0 8 -4 5 -10 -3 -5 -2 -10 3 -10 5 0 12 -9 15 -21 4 -14 10 -18 18 -13 9 5 10 2 6 -9 -4 -10 -2 -16 6 -14 7 1 11 -8 10 -23 -1 -14 0 -18 3 -7 8 25 25 21 21 -5 -2 -13 -2 -17 0 -10 3 6 11 12 19 12 8 0 12 -4 9 -10 -10 -17 7 -11 22 8 8 9 11 11 7 3 -5 -9 -3 -12 4 -7 7 4 12 14 12 22 0 8 7 14 15 14 9 0 15 9 15 25 0 25 1 25 25 9 14 -9 25 -22 25 -29 0 -7 6 -16 13 -18 9 -4 9 -6 0 -6 -6 -1 -15 4 -18 9 -4 6 -13 7 -23 1 -9 -5 -21 -9 -26 -9 -5 -1 -15 -14 -22 -30 -9 -23 -9 -33 -1 -42 9 -10 9 -11 -3 -6 -9 5 -9 2 2 -7 10 -8 15 -17 11 -21 -4 -4 0 -4 10 0 12 4 17 1 17 -10 0 -9 5 -16 11 -16 5 0 8 -4 5 -9 -3 -5 1 -14 10 -21 8 -7 13 -19 10 -26 -3 -8 0 -11 10 -7 7 3 14 1 14 -5 0 -6 10 -8 23 -4 20 5 21 4 7 -13 -13 -17 -13 -18 0 -11 9 4 8 2 -2 -7 -10 -8 -14 -18 -10 -22 4 -5 2 -5 -4 -2 -7 4 -17 0 -24 -8 -10 -12 -15 -12 -36 1 -13 9 -26 26 -30 37 -4 12 -12 25 -18 30 -8 5 -6 10 4 18 13 9 13 10 -2 6 -24 -8 -47 21 -27 35 11 8 11 9 -3 4 -10 -3 -25 -3 -33 0 -12 5 -12 9 1 32 10 17 11 21 2 10 -10 -12 -19 -14 -31 -6 -10 5 -15 13 -12 19 4 5 -1 9 -9 9 -9 0 -15 6 -13 13 1 6 -5 11 -14 11 -12 -1 -16 6 -14 28 2 22 0 26 -10 18 -10 -8 -15 -8 -21 1 -4 7 -3 9 3 6 6 -4 13 -1 16 6 3 9 -3 13 -17 13 -11 -1 -20 4 -19 10 1 6 -3 11 -10 12 -46 6 -57 9 -64 17 -5 4 -2 5 5 1 11 -7 17 5 13 27 -1 5 3 6 8 3 5 -4 12 -2 16 4 3 5 15 10 26 10 10 0 19 5 19 11 0 5 5 7 10 4 6 -4 8 -11 5 -16z m458 -136 c-6 -15 -19 -17 -27 -4 -7 11 0 18 18 18 8 0 12 -6 9 -14z m19 -33 c-2 -17 0 -30 6 -30 6 0 9 8 7 18 -1 9 0 11 2 5 3 -7 9 -13 14 -13 5 0 9 -4 9 -10 0 -5 -3 -9 -7 -9 -5 1 -15 1 -23 0 -12 -1 -12 -3 -2 -10 11 -7 10 -9 -3 -14 -9 -4 -13 -3 -10 2 3 5 1 12 -5 16 -5 3 -10 1 -10 -6 0 -7 -3 -9 -7 -6 -3 4 -12 -1 -19 -11 -12 -15 -12 -14 -7 8 3 14 15 33 27 43 20 16 20 17 1 11 l-20 -7 20 21 c27 28 32 27 27 -8z m-97 -114 c-22 -7 -34 -15 -28 -17 7 -2 2 -9 -11 -15 -20 -9 -23 -8 -22 5 3 17 50 40 81 40 11 -1 2 -7 -20 -13z"/> <path d="M3169 3515 c-15 -8 -30 -22 -33 -32 -7 -17 -6 -17 11 0 10 10 27 24 38 32 26 18 17 18 -16 0z"/> <path d="M4250 3780 c13 -8 13 -11 1 -22 -10 -10 -12 -10 -7 0 4 6 2 12 -3 12 -6 0 -11 -4 -11 -10 0 -5 -7 -10 -15 -10 -20 0 -19 -10 5 -40 l20 -25 0 28 c0 15 5 27 11 27 5 0 7 -4 4 -10 -3 -5 -1 -10 4 -10 6 0 11 7 11 16 0 8 5 12 11 8 6 -3 3 5 -6 20 -10 14 -22 26 -29 26 -6 0 -4 -5 4 -10z"/> <path d="M4139 3732 c-15 -17 -14 -21 2 -41 15 -18 22 -20 39 -11 24 13 24 14 4 45 -19 30 -25 31 -45 7z m39 -14 c16 -16 15 -25 -2 -31 -8 -3 -20 2 -28 11 -11 13 -11 14 1 7 11 -6 13 -4 8 8 -7 20 4 22 21 5z"/> <path d="M4052 3687 c-14 -17 2 -42 22 -34 9 4 16 2 16 -3 0 -6 -4 -10 -9 -10 -5 0 -12 -7 -15 -16 -6 -15 -4 -15 16 -2 30 20 29 42 -1 46 -17 3 -20 6 -12 12 8 4 9 10 3 14 -5 3 -14 0 -20 -7z"/> <path d="M3995 3650 c-8 -14 3 -30 21 -30 9 0 12 5 8 12 -4 7 -3 8 5 4 9 -6 9 -11 0 -22 -6 -8 -9 -17 -6 -20 10 -10 27 6 27 25 0 32 -40 55 -55 31z"/> <path d="M2690 3488 c-30 -16 -84 -53 -120 -82 -36 -28 -83 -64 -105 -79 -86 -59 -83 -54 -53 -83 l26 -26 31 23 31 23 26 -25 c64 -59 234 -255 234 -270 0 -10 -11 -26 -25 -36 l-26 -18 29 -28 29 -28 54 44 c30 24 97 77 149 117 52 41 100 79 105 84 62 63 59 142 -8 204 -35 33 -74 41 -127 26 -51 -15 -56 -13 -41 14 23 43 13 89 -27 132 -34 35 -44 40 -83 39 -29 0 -62 -10 -99 -31z m119 -20 c11 -11 13 -10 7 0 -6 10 -2 10 19 0 15 -7 22 -14 15 -16 -7 -3 0 -12 17 -23 15 -10 23 -19 16 -19 -6 0 -9 -8 -6 -19 3 -13 -2 -21 -17 -26 -20 -6 -20 -8 -4 -20 16 -11 17 -15 4 -31 -12 -16 -12 -17 0 -6 19 17 28 15 40 -8 7 -14 7 -20 0 -20 -5 0 -10 8 -10 18 -1 16 -1 16 -11 0 -11 -20 -54 -24 -65 -6 -5 8 -1 9 12 4 15 -6 17 -5 6 6 -10 10 -8 15 10 26 l23 13 -25 -6 c-19 -5 -22 -4 -10 4 8 6 11 11 6 11 -5 0 -3 6 3 14 9 11 9 16 0 22 -8 4 -9 3 -5 -4 4 -7 3 -12 -1 -12 -10 0 -38 42 -35 53 2 7 -17 11 -45 10 -7 -1 -10 3 -7 8 3 5 1 9 -5 9 -5 0 -11 -6 -14 -12 -3 -7 -5 -4 -4 8 1 19 27 31 27 12 0 -5 5 -6 10 -3 6 4 8 11 5 16 -9 14 29 11 44 -3z m-22 -96 c12 -15 22 -32 23 -39 0 -6 -18 -30 -39 -53 l-40 -43 -55 59 c-59 64 -59 68 -1 99 39 21 84 12 112 -23z m-194 -10 c-4 -18 -33 -27 -33 -11 0 6 26 27 37 29 0 0 -1 -8 -4 -18z m-39 -33 c-2 -4 0 -11 6 -14 6 -4 9 -1 8 5 -6 23 31 18 54 -8 16 -19 17 -22 4 -12 -14 11 -17 11 -12 2 4 -7 19 -17 31 -22 17 -6 23 -15 20 -30 -2 -11 0 -20 6 -20 5 0 9 6 9 13 0 8 4 7 10 -3 5 -8 10 -10 10 -5 0 6 5 2 10 -7 8 -13 16 -15 43 -7 l32 9 -25 -20 c-15 -12 -20 -20 -11 -20 10 0 7 -8 -10 -27 -17 -20 -18 -23 -3 -11 20 17 21 16 45 -22 13 -22 32 -42 41 -45 9 -3 20 -15 23 -26 4 -13 12 -18 22 -15 11 4 13 2 10 -9 -4 -8 -1 -17 5 -21 7 -4 8 -3 4 4 -4 7 -1 12 8 12 8 0 20 2 28 3 7 2 10 2 5 0 -4 -3 -4 -10 -1 -15 5 -7 2 -8 -5 -3 -7 4 -22 -2 -36 -15 -14 -13 -29 -19 -36 -15 -8 5 -10 4 -5 -3 7 -12 -27 -52 -44 -52 -6 0 -8 12 -6 26 6 30 -2 56 -15 48 -8 -4 -13 11 -6 19 3 4 -60 64 -75 70 -10 4 -10 8 2 16 13 9 11 11 -6 11 -24 0 -39 26 -21 34 7 4 2 4 -11 2 -12 -2 -20 0 -16 5 3 5 0 9 -5 9 -6 0 -11 7 -11 16 0 8 -4 12 -10 9 -9 -6 -14 8 -11 28 1 5 -3 6 -8 3 -5 -4 -12 -2 -16 4 -3 5 0 11 7 12 7 0 18 2 23 2 17 3 51 25 38 26 -6 0 -14 -4 -18 -10 -3 -5 -12 -7 -20 -4 -8 4 -12 11 -8 17 3 6 1 7 -6 3 -6 -4 -9 -12 -6 -17 4 -5 -3 -9 -14 -9 -11 0 -23 5 -26 10 -4 6 -10 8 -14 6 -4 -3 -7 4 -7 16 1 12 -6 23 -14 25 -12 4 -13 3 -1 -5 8 -6 10 -15 6 -22 -6 -10 -10 -8 -17 4 -11 19 32 80 44 62 4 -5 5 -13 2 -17z m417 -28 c2 24 2 24 6 1 4 -20 6 -21 21 -6 14 15 17 15 28 -1 7 -9 18 -14 24 -10 6 3 10 3 9 -2 -2 -16 13 -53 21 -48 4 3 10 -1 13 -9 3 -8 -1 -17 -9 -20 -8 -3 -14 -11 -14 -18 0 -9 3 -8 10 2 8 13 10 12 10 -2 0 -10 -5 -18 -11 -18 -5 0 -8 -4 -5 -8 3 -5 -4 -14 -14 -22 -10 -8 -17 -17 -14 -22 3 -4 -2 -5 -10 -2 -9 3 -16 1 -16 -6 0 -6 -4 -9 -9 -5 -6 3 -6 17 -1 35 5 18 5 32 -1 36 -5 3 -7 10 -4 15 4 5 2 9 -3 9 -6 0 -15 14 -21 30 -7 21 -17 30 -32 30 -18 0 -19 2 -9 15 11 13 10 14 -5 9 -13 -5 -16 -4 -11 4 4 7 2 12 -6 12 -9 0 -9 3 2 10 11 7 20 4 33 -11 l17 -21 1 23z m-24 -83 c47 -46 45 -80 -9 -129 -33 -30 -45 -36 -54 -26 -7 6 -35 38 -63 71 l-50 58 33 23 c67 45 99 46 143 3z"/> <path d="M3503 3218 c-50 -32 -52 -35 -50 -75 1 -28 6 -43 14 -43 7 0 13 -7 13 -15 0 -8 9 -20 19 -27 14 -8 17 -17 11 -28 -5 -9 -5 -22 1 -31 6 -10 9 -11 9 -1 0 7 4 11 9 8 17 -11 -2 -48 -31 -60 -15 -7 -25 -16 -21 -21 5 -4 0 -6 -9 -2 -9 3 -19 0 -22 -9 -3 -8 -10 -14 -17 -14 -14 0 -59 49 -81 89 l-17 31 32 9 c18 5 24 10 14 10 -10 1 -27 -4 -38 -9 -13 -8 -19 -7 -19 0 0 23 22 51 36 46 7 -3 13 0 11 6 -3 13 54 47 71 40 6 -2 12 1 12 6 0 19 -41 25 -59 8 -10 -9 -20 -16 -23 -16 -16 0 -68 -57 -68 -74 0 -10 11 -34 25 -52 14 -18 25 -35 25 -38 0 -11 -40 18 -40 29 -1 5 -10 21 -21 34 -22 27 -36 23 -96 -27 l-32 -27 19 -69 c20 -69 43 -116 59 -116 4 0 18 9 31 20 27 24 25 23 49 8 15 -9 24 -7 49 13 26 20 30 29 26 54 -5 24 -4 28 7 18 21 -21 44 -15 98 25 41 30 51 43 51 67 0 22 3 26 12 17 23 -23 47 -12 121 53 20 18 22 48 4 67 -8 7 -20 24 -27 38 -26 49 -66 90 -88 90 -9 0 -40 -15 -69 -32z m99 -7 c9 -11 24 -32 34 -46 15 -23 15 -28 3 -37 -10 -7 -9 -8 7 -3 24 6 43 -23 23 -36 -7 -4 -8 -12 -4 -20 6 -9 4 -11 -8 -6 -10 4 -16 2 -14 -5 1 -6 -4 -13 -12 -16 -9 -3 -11 0 -6 8 6 9 4 11 -4 6 -7 -5 -10 -14 -7 -22 9 -22 -24 -29 -54 -12 -24 14 -28 14 -39 -1 -9 -13 -9 -12 -1 6 10 22 4 53 -10 53 -10 0 -40 57 -40 75 0 7 16 25 36 40 l37 28 19 -24 c16 -20 18 -21 9 -3 -17 36 5 46 31 15z m-255 -267 c21 8 42 -42 22 -55 -11 -8 -11 -12 -1 -16 18 -7 15 -26 -4 -19 -8 3 -13 2 -10 -3 3 -5 -1 -15 -10 -22 -12 -10 -17 -10 -23 0 -9 15 -40 11 -59 -6 -21 -20 -32 -15 -46 20 -23 55 -29 90 -14 81 10 -6 10 -4 0 8 -11 14 -10 20 10 38 13 11 30 27 38 36 13 13 19 10 49 -26 20 -25 39 -39 48 -36z"/> <path d="M3580 3208 c0 -10 40 -51 45 -46 3 2 -6 15 -20 28 -14 13 -25 21 -25 18z"/> <path d="M3540 3161 c0 -5 11 -18 23 -28 16 -12 23 -27 21 -43 -1 -14 0 -19 2 -12 3 6 9 10 14 7 4 -3 11 2 14 11 3 8 2 13 -2 10 -4 -2 -18 11 -32 30 -25 33 -40 43 -40 25z"/> <path d="M3250 2915 c0 -15 18 -40 24 -34 3 3 -1 14 -9 25 -8 10 -14 15 -15 9z"/> <path d="M2180 3113 c0 -5 -52 -50 -115 -102 -63 -51 -115 -95 -115 -97 0 -2 11 -15 25 -30 14 -15 25 -23 25 -18 0 5 13 16 29 25 l29 17 74 -77 c41 -42 103 -109 138 -150 l63 -74 -34 -28 -34 -28 26 -27 27 -26 99 83 c55 46 115 95 133 109 38 28 89 69 110 88 8 6 26 21 40 31 22 18 23 21 9 33 -8 7 -44 46 -78 85 l-63 72 -28 -22 -27 -22 23 -35 c12 -19 25 -50 29 -68 6 -31 2 -37 -55 -94 l-61 -61 -17 24 c-18 27 -146 173 -204 234 -45 47 -47 67 -11 93 l28 20 -24 26 c-24 26 -41 33 -41 19z m-13 -77 c0 -9 -7 -12 -16 -8 -14 5 -13 2 1 -14 14 -16 15 -23 5 -34 -10 -10 -8 -12 7 -6 16 6 17 4 6 -9 -11 -13 -11 -16 1 -13 8 2 14 -5 14 -17 0 -13 6 -19 17 -17 18 3 51 -36 42 -50 -3 -4 2 -5 10 -2 15 6 40 -28 29 -39 -3 -3 6 -9 21 -13 14 -3 23 -10 20 -15 -3 -5 0 -9 6 -9 6 0 8 -4 5 -10 -3 -5 1 -10 10 -10 9 0 14 -4 11 -8 -2 -4 9 -17 25 -27 16 -11 27 -25 25 -32 -3 -7 1 -10 10 -6 10 3 12 0 9 -10 -4 -9 2 -16 17 -20 27 -7 14 -27 -19 -30 -14 -1 -19 -6 -15 -16 4 -10 0 -13 -16 -9 -13 4 -20 2 -19 -5 1 -6 -6 -13 -15 -15 -10 -2 -18 2 -18 8 0 6 4 9 9 5 6 -3 9 4 8 15 -1 11 -7 20 -14 20 -7 0 -10 7 -6 15 3 10 0 15 -8 13 -8 -2 -14 5 -14 16 0 10 -13 24 -30 32 -17 8 -22 12 -12 9 9 -2 17 0 17 5 0 6 -7 10 -15 10 -19 0 -60 40 -42 40 6 1 -1 8 -18 16 -16 8 -22 12 -12 9 10 -3 15 -1 12 5 -3 6 -11 10 -17 10 -12 0 -58 50 -58 64 0 5 -3 6 -6 3 -9 -8 -45 33 -39 43 2 4 -9 6 -25 4 -17 -2 -30 1 -30 7 0 6 3 8 8 6 12 -8 52 12 51 25 0 10 -2 10 -6 1 -2 -7 -12 -13 -21 -13 -12 0 -8 6 11 18 15 9 27 21 27 27 0 7 40 40 56 45 0 0 1 -6 1 -14z m449 -145 c-8 -12 19 -33 29 -23 4 4 4 -4 0 -17 -5 -15 -4 -21 3 -17 6 3 14 1 18 -5 4 -8 3 -9 -4 -5 -7 4 -12 1 -12 -8 0 -24 -18 -29 -42 -12 -15 11 -18 16 -8 16 13 0 13 1 0 10 -12 8 -12 10 3 16 17 6 17 7 0 20 -16 12 -16 15 -3 24 19 12 23 13 16 1z m-2 -107 c3 -8 2 -12 -3 -9 -6 3 -14 -3 -20 -12 -14 -23 -14 -7 -1 18 13 23 16 24 24 3z"/> <path d="M3938 3083 c6 -2 10 -8 8 -12 -3 -4 4 -7 15 -7 19 0 19 1 3 13 -10 7 -23 13 -28 12 -6 0 -5 -3 2 -6z"/> <path d="M4152 3074 c4 -4 3 -15 -3 -25 -13 -24 -8 -24 13 0 15 18 15 20 0 26 -9 3 -13 3 -10 -1z"/> <path d="M3398 3055 c21 -55 72 -115 72 -85 0 6 -5 10 -12 10 -6 0 -9 3 -5 6 3 3 -1 13 -8 22 -55 67 -55 67 -47 47z"/> <path d="M4025 2980 c-3 -5 -13 -6 -23 -3 -14 5 -14 3 2 -9 13 -10 16 -20 11 -29 -7 -11 -5 -11 9 1 12 9 14 16 7 18 -9 3 -9 7 0 18 6 8 9 14 6 14 -3 0 -8 -4 -12 -10z"/> <path d="M4075 2970 c-3 -5 -4 -14 0 -19 3 -5 1 -12 -5 -16 -5 -3 -10 -12 -10 -18 1 -17 24 25 25 46 2 19 -1 21 -10 7z"/> <path d="M3760 2951 c0 -5 -8 -12 -17 -14 -10 -3 -6 -4 8 -4 18 1 25 6 22 14 -6 15 -13 17 -13 4z"/> <path d="M3060 2890 c-25 -22 -48 -40 -53 -40 -11 0 -187 -142 -187 -151 0 -4 28 -31 62 -61 33 -29 71 -63 83 -75 12 -13 26 -23 29 -23 15 0 96 73 96 86 0 8 -14 42 -30 75 -17 33 -28 64 -25 69 13 22 36 7 72 -45 21 -30 42 -55 47 -55 15 0 76 50 76 62 0 6 -19 36 -42 66 -28 36 -39 57 -30 59 6 3 12 10 12 17 0 14 -42 56 -56 56 -5 0 -29 -18 -54 -40z m90 -11 c0 -5 -7 -6 -15 -3 -12 5 -13 1 -4 -24 6 -17 17 -36 25 -43 8 -6 14 -18 14 -25 0 -8 5 -14 10 -14 6 0 10 -7 10 -15 0 -8 6 -15 13 -15 15 -1 -34 -39 -50 -40 -12 0 -17 20 -16 57 1 7 -4 10 -9 7 -5 -3 -7 -13 -4 -23 5 -12 3 -12 -9 3 -8 10 -12 23 -9 28 3 5 1 7 -5 6 -5 -2 -17 6 -25 17 -13 17 -17 18 -25 5 -9 -13 -13 -13 -28 3 -17 18 -17 19 12 43 33 26 45 30 45 13 0 -5 -5 -7 -11 -3 -7 4 -7 -2 1 -17 18 -35 19 -34 16 5 -3 28 2 40 17 51 20 14 47 5 47 -16z m-127 -142 c50 -106 52 -116 30 -132 -10 -8 -24 -12 -31 -10 -7 3 -11 1 -8 -4 3 -5 -1 -11 -9 -14 -18 -8 -79 49 -69 64 4 8 3 9 -4 5 -16 -10 -54 12 -46 26 4 6 3 8 -2 5 -6 -3 -16 -2 -24 3 -12 7 -10 13 10 34 13 15 27 26 31 26 4 0 20 -13 36 -30 15 -16 31 -30 36 -30 4 0 -1 10 -12 22 -31 32 -36 57 -15 73 11 7 22 11 27 8 4 -2 7 -1 6 4 -2 12 0 23 5 23 3 0 20 -33 39 -73z"/> <path d="M1884 2863 c-17 -16 -44 -39 -60 -53 -16 -14 -57 -49 -91 -79 l-62 -53 24 -25 23 -26 30 22 c17 11 33 21 37 21 10 0 119 -118 231 -251 36 -44 36 -48 5 -77 l-30 -27 25 -28 24 -28 67 57 c38 32 84 72 103 90 19 18 45 41 57 51 l22 18 -24 30 -24 29 -19 -22 c-33 -38 -53 -28 -137 71 -44 50 -98 111 -120 135 -61 65 -62 71 -26 99 l32 25 -26 24 c-14 13 -27 24 -28 24 -2 0 -16 -12 -33 -27z m3 -65 c1 -10 -2 -16 -8 -13 -5 4 -9 1 -9 -4 0 -6 5 -11 11 -11 5 0 7 -5 3 -12 -5 -8 -2 -9 11 -4 15 5 16 4 5 -9 -10 -12 -9 -15 5 -15 10 0 15 -3 12 -7 -4 -3 3 -11 16 -18 12 -6 21 -19 21 -28 -1 -9 5 -17 13 -17 8 0 11 -4 8 -10 -3 -5 1 -10 9 -10 8 0 18 -4 21 -10 3 -5 0 -8 -7 -7 -7 2 -10 2 -5 0 4 -3 5 -9 2 -14 -4 -5 1 -6 9 -3 28 11 38 -6 20 -34 -17 -27 -17 -27 3 -10 19 17 20 17 41 -9 12 -15 22 -30 22 -34 0 -4 16 -17 36 -28 29 -17 34 -24 24 -35 -17 -22 35 -13 63 10 l22 19 -20 -25 c-28 -34 -48 -49 -59 -43 -5 4 -6 1 -3 -4 8 -13 -42 -49 -62 -45 -7 2 -10 -1 -7 -6 3 -5 -4 -18 -17 -28 l-22 -19 19 23 c11 12 16 22 11 22 -4 0 -1 8 6 17 8 9 9 14 3 10 -7 -4 -18 1 -25 10 -10 12 -10 14 -1 9 6 -4 12 -2 12 4 0 6 -7 13 -15 16 -8 4 -15 11 -15 18 0 6 -11 20 -25 30 -13 10 -23 22 -20 26 3 4 -3 14 -12 21 -14 12 -16 12 -8 0 5 -10 4 -12 -3 -7 -7 4 -12 14 -12 22 0 8 -8 14 -17 15 -11 0 -13 3 -5 6 17 7 15 23 -4 23 -9 0 -18 9 -21 19 -3 13 -10 18 -21 14 -10 -4 -13 -2 -8 5 4 7 2 12 -4 12 -7 0 -10 7 -7 14 4 11 1 13 -10 9 -11 -4 -14 -2 -9 5 7 11 -6 17 -27 13 -5 -1 -6 3 -2 9 4 6 -6 11 -22 11 -22 2 -20 3 12 9 37 7 38 7 10 10 -16 1 -37 1 -45 0 -10 -1 -8 5 7 19 12 12 24 21 27 21 11 0 56 52 52 59 -3 4 1 8 7 8 7 0 14 -9 14 -19z"/> <path d="M3981 2857 c-11 -14 -5 -27 12 -27 5 0 6 7 3 16 -5 12 -2 15 9 10 9 -3 13 -2 10 4 -8 14 -20 12 -34 -3z"/> <path d="M3500 2854 c0 -14 13 -30 31 -36 9 -4 16 -1 16 8 0 7 -5 10 -10 7 -6 -3 -16 2 -24 12 -7 11 -13 15 -13 9z"/> <path d="M3705 2803 c-74 -17 -263 -139 -371 -240 -98 -91 -152 -193 -111 -209 19 -7 86 16 158 55 39 20 59 27 67 19 7 -7 16 -7 30 1 10 6 23 7 27 3 3 -4 5 -1 3 7 -1 8 8 20 22 27 15 8 25 22 25 35 0 12 14 32 33 46 27 21 32 23 32 9 0 -10 -4 -15 -9 -12 -15 9 -36 -23 -24 -35 8 -8 16 -3 29 17 10 16 23 32 29 36 6 5 3 8 -7 8 -25 0 -23 7 9 35 27 23 43 24 43 4 0 -6 -4 -8 -9 -5 -5 3 -14 -1 -20 -8 -19 -23 4 -27 29 -6 13 11 20 20 16 20 -4 0 -1 6 6 14 7 8 17 11 22 9 5 -3 6 0 4 8 -3 8 2 19 10 25 10 7 12 13 4 18 -6 4 -16 -4 -23 -16 -12 -24 -28 -38 -42 -38 -5 0 7 18 25 39 l33 40 24 -22 c21 -20 23 -20 13 -2 -8 15 -6 22 6 31 14 10 14 12 2 11 -8 -2 -21 -7 -29 -11 -11 -7 -13 -5 -7 10 19 44 19 57 1 70 -11 8 -21 13 -24 13 -3 -1 -15 -3 -26 -6z m51 -25 c11 -12 -20 -64 -74 -120 -56 -59 -203 -178 -220 -178 -5 0 -17 -9 -27 -20 -10 -11 -22 -20 -26 -20 -5 0 -31 -13 -59 -30 -60 -35 -130 -51 -130 -28 0 54 167 223 309 313 50 31 93 57 98 58 4 1 24 9 43 18 31 15 74 19 86 7z m-243 -307 c-18 -16 -34 -26 -37 -23 -3 3 -6 0 -6 -6 0 -7 -4 -12 -10 -12 -21 0 -8 19 32 49 50 37 64 32 21 -8z"/> <path d="M3653 2753 c-18 -7 -16 -28 3 -47 18 -19 34 -13 34 12 0 15 -2 15 -10 2 -9 -13 -10 -13 -11 0 -1 8 -1 21 0 28 1 6 1 12 -1 11 -2 0 -9 -3 -15 -6z"/> <path d="M3612 2727 c-10 -11 -10 -21 -1 -41 13 -29 34 -34 43 -11 3 9 0 15 -10 15 -8 0 -13 3 -11 8 3 4 1 15 -2 25 -6 17 -9 17 -19 4z"/> <path d="M3563 2690 c-23 -18 -32 -37 -13 -25 5 3 15 -5 22 -19 6 -14 15 -26 19 -26 14 0 21 21 11 33 -6 7 -12 22 -14 34 -3 21 -3 21 -25 3z"/> <path d="M3493 2642 c-10 -6 -10 -17 -3 -42 13 -46 13 -50 -5 -44 -8 4 -15 15 -15 25 0 23 -32 25 -54 4 -14 -14 -14 -19 1 -50 13 -27 19 -32 30 -24 7 6 10 16 6 22 -4 7 0 8 11 4 12 -5 27 2 46 23 15 16 35 30 44 30 24 0 19 14 -14 38 -33 25 -31 24 -47 14z"/> <path d="M3323 2502 c-51 -47 -51 -47 -34 -70 15 -21 19 -22 30 -8 11 13 11 19 1 31 -7 9 -10 19 -6 23 4 4 14 -2 22 -12 17 -25 29 -15 15 12 -13 25 -14 32 -3 32 5 0 14 -12 20 -26 11 -22 14 -24 27 -10 18 18 19 48 3 64 -17 17 -17 17 -75 -36z"/> <path d="M3325 2750 c6 -10 4 -12 -10 -6 -18 7 -18 6 0 -14 10 -11 23 -20 29 -20 6 0 5 4 -3 9 -7 5 -11 13 -7 19 3 6 1 14 -5 18 -8 5 -9 3 -4 -6z"/> <path d="M3840 2676 c-14 -8 -29 -12 -34 -9 -5 4 -6 1 -2 -5 5 -9 14 -8 34 2 15 7 34 16 42 19 13 5 13 5 0 6 -8 0 -26 -6 -40 -13z"/> <path d="M3159 2633 c-1 -5 -1 -11 0 -15 0 -5 -4 -8 -10 -8 -15 0 -2 -18 23 -31 12 -7 18 -7 14 -1 -3 6 0 13 6 16 7 3 3 3 -9 0 -24 -6 -32 11 -10 19 9 4 9 6 -1 6 -7 1 -10 6 -7 11 3 6 4 10 1 10 -3 0 -7 -3 -7 -7z"/> <path d="M3759 2609 c14 -5 28 -6 32 -2 4 4 -6 9 -24 10 -30 1 -31 1 -8 -8z"/> <path d="M1557 2582 c-18 -19 -23 -32 -17 -42 12 -19 3 -30 -25 -30 -40 0 -102 -39 -143 -88 -53 -64 -53 -66 -62 -135 -11 -99 11 -165 87 -255 51 -60 118 -98 189 -107 92 -13 204 57 259 161 14 26 25 53 25 60 0 17 22 18 38 2 9 -9 17 -6 37 12 28 27 30 33 13 52 -26 27 -115 134 -122 146 -5 8 1 23 15 38 l23 25 -25 24 -24 24 -46 -42 c-25 -23 -76 -69 -114 -103 l-67 -61 24 -26 24 -26 31 25 31 24 41 -45 c48 -52 50 -72 15 -114 -37 -44 -88 -56 -139 -31 -90 43 -195 184 -195 261 0 31 7 45 41 79 34 34 47 40 82 40 29 0 54 -8 79 -25 46 -31 49 -31 78 0 27 28 30 22 -60 118 -25 26 -46 52 -48 57 -6 16 -17 12 -45 -18z m106 -95 c8 4 7 1 -1 -9 -11 -14 -10 -16 10 -12 19 5 20 4 6 -5 -22 -15 -48 -4 -41 17 5 15 4 15 -13 0 -17 -17 -19 -17 -42 4 -21 21 -23 21 -17 3 6 -16 5 -17 -4 -5 -15 22 -14 27 11 33 19 5 20 8 7 23 -8 10 -9 15 -2 11 6 -4 15 -2 18 4 5 6 17 -6 32 -30 15 -26 29 -39 36 -34z m-235 -72 c-12 -14 -23 -23 -25 -21 -6 5 29 46 39 46 4 0 -2 -11 -14 -25z m378 -27 c4 -7 3 -8 -4 -4 -7 4 -12 2 -12 -3 0 -6 5 -11 11 -11 6 0 9 -8 7 -17 -2 -10 6 -28 19 -40 13 -12 23 -27 23 -33 0 -5 5 -10 11 -10 5 0 7 -4 4 -10 -3 -5 -1 -10 6 -10 17 0 49 -30 49 -45 0 -7 -16 -16 -35 -19 -20 -4 -33 -11 -30 -17 4 -5 4 -9 1 -9 -2 0 -13 -3 -23 -7 -10 -3 -15 -3 -11 2 4 4 -2 16 -14 26 -11 11 -16 19 -10 19 6 0 -3 16 -21 35 -17 19 -38 35 -44 35 -7 0 -13 10 -13 23 0 12 -4 17 -8 11 -4 -6 -16 -14 -27 -17 -17 -6 -18 -5 -4 5 9 7 21 23 28 36 6 12 17 22 24 21 8 0 7 -2 -2 -6 -10 -4 -11 -7 -1 -13 7 -5 20 -6 27 -3 12 5 12 7 1 14 -10 6 -9 11 7 23 11 9 16 16 10 16 -5 0 -3 5 5 10 19 12 17 12 26 -2z m-403 -23 c4 -8 2 -17 -3 -20 -6 -4 -10 -11 -10 -16 0 -6 4 -8 9 -5 5 4 7 -3 4 -14 -3 -11 -10 -17 -17 -14 -6 3 -3 -1 6 -9 14 -11 15 -16 5 -26 -9 -10 -8 -11 7 -5 13 5 17 4 13 -3 -4 -6 0 -13 8 -17 17 -6 20 -26 4 -26 -5 0 -7 5 -3 12 4 7 3 8 -5 4 -13 -9 -5 -26 12 -26 7 0 22 -16 35 -35 12 -19 27 -35 32 -35 6 0 10 -7 10 -16 0 -8 5 -12 10 -9 6 3 10 -1 10 -10 0 -8 11 -20 24 -25 13 -5 27 -14 31 -19 3 -6 11 -11 16 -11 6 0 7 5 3 12 -5 7 -3 8 6 3 10 -6 9 -11 -6 -22 -17 -12 -15 -13 13 -7 18 3 33 2 37 -5 5 -8 13 -8 27 -1 11 6 24 8 29 5 6 -3 10 -2 10 3 0 6 11 13 25 16 14 4 25 11 25 17 0 6 5 7 10 4 15 -10 -8 -35 -31 -35 -11 0 -16 -5 -13 -14 4 -11 -12 -25 -36 -30 -3 -1 -15 -7 -27 -14 -20 -11 -22 -10 -17 5 5 13 1 11 -10 -5 -14 -18 -21 -20 -38 -11 -15 8 -19 8 -14 0 4 -6 2 -11 -3 -11 -6 0 -11 6 -12 13 0 9 -2 9 -6 -1 -4 -10 -9 -9 -20 5 -8 10 -11 12 -8 4 5 -9 -1 -8 -19 4 -19 13 -23 21 -16 30 7 8 5 12 -5 12 -8 0 -12 -4 -9 -8 2 -4 -5 -7 -16 -6 -15 1 -20 7 -16 20 4 15 2 16 -10 6 -11 -9 -14 -9 -14 0 0 7 -5 9 -12 5 -6 -4 -8 -3 -5 3 4 6 0 16 -8 23 -8 7 -12 16 -9 21 3 5 0 8 -8 7 -8 -2 -13 6 -12 19 0 12 -3 20 -8 17 -4 -3 -8 4 -8 16 0 14 -4 19 -12 14 -7 -5 -9 -2 -5 9 3 8 -1 21 -9 28 -12 10 -12 13 3 25 17 12 17 13 1 19 -14 6 -15 11 -7 26 5 11 9 25 7 32 -4 22 13 58 24 51 7 -4 8 -2 4 4 -8 13 0 32 14 32 4 0 10 -7 13 -15z"/> <path d="M3180 2538 c13 -16 13 -31 -1 -22 -8 5 -8 1 0 -14 13 -25 31 -38 31 -23 0 6 -4 11 -10 11 -15 0 -12 17 8 36 15 15 15 17 1 12 -9 -4 -22 -2 -28 3 -8 6 -8 5 -1 -3z"/> <path d="M2415 2500 c-23 -26 -6 -52 20 -30 25 20 31 2 7 -20 l-22 -20 -12 20 c-14 22 -33 27 -25 7 4 -10 -2 -13 -19 -9 -29 5 -31 -9 -4 -33 19 -17 19 -19 2 -31 -21 -17 -40 -18 -24 -2 17 17 15 33 -3 18 -9 -8 -15 -8 -15 -2 0 6 6 12 13 15 6 2 9 8 5 12 -8 8 -38 -12 -38 -25 0 -4 8 -18 19 -31 l18 -23 31 26 c27 23 29 28 16 38 -19 17 -11 24 14 11 15 -8 25 -5 52 18 38 32 34 57 -8 46 -26 -6 -26 -6 -8 14 11 12 15 21 9 21 -5 0 -18 -9 -28 -20z"/> <path d="M3646 2472 c-5 -15 -13 -21 -22 -18 -8 3 -14 1 -14 -4 0 -16 30 -11 37 6 4 11 8 12 13 4 5 -8 9 -7 13 5 4 9 3 14 -2 10 -5 -3 -11 1 -14 7 -2 7 -7 3 -11 -10z"/> <path d="M3370 2385 c-7 -8 -19 -15 -27 -15 -8 0 -12 -4 -9 -9 3 -5 -6 -8 -21 -8 -15 0 -29 -5 -31 -11 -2 -6 -10 -8 -18 -5 -8 3 -14 0 -14 -6 0 -6 14 -11 30 -11 17 0 30 4 30 9 0 5 14 12 30 16 17 4 30 12 30 20 0 7 7 12 16 11 9 0 19 5 21 12 6 17 -22 15 -37 -3z"/> <path d="M3486 2385 c25 -19 40 -19 20 0 -8 8 -20 15 -27 15 -7 0 -4 -6 7 -15z"/> <path d="M2270 2379 c0 -6 5 -19 10 -30 8 -13 7 -19 0 -19 -6 0 -8 -4 -5 -10 3 -5 13 -10 21 -10 12 0 12 4 4 20 -6 12 -7 20 -1 20 5 0 11 -6 14 -12 2 -7 7 -10 11 -7 4 4 -4 19 -17 33 -26 28 -37 32 -37 15z"/> <path d="M2230 2342 c0 -5 7 -15 15 -22 8 -7 15 -17 15 -23 0 -6 -9 -1 -20 11 -32 34 -72 3 -50 -39 14 -25 29 -24 63 7 21 18 26 28 19 37 -6 7 -10 17 -11 22 0 13 -31 20 -31 7z m-1 -46 c8 -10 9 -16 1 -21 -13 -8 -30 3 -30 21 0 18 14 18 29 0z"/> <path d="M3430 2331 c12 -9 11 -11 -9 -11 -30 0 -25 -5 14 -14 19 -4 25 -3 17 2 -8 5 -13 13 -12 18 1 5 -4 10 -12 12 -9 2 -8 0 2 -7z"/> <path d="M3183 2305 c4 -5 -2 -14 -13 -20 -19 -10 -20 -13 -5 -25 13 -11 15 -10 8 6 -6 17 -5 17 10 5 10 -8 20 -11 24 -7 3 3 1 6 -6 6 -7 0 -11 7 -8 15 4 8 1 17 -6 21 -7 4 -8 3 -4 -1z"/> <path d="M3351 2291 c-12 -8 -9 -11 12 -17 16 -3 31 -4 34 0 4 3 -4 6 -16 6 -12 0 -19 4 -16 10 8 12 4 12 -14 1z"/> <path d="M2164 2268 c4 -19 2 -28 -6 -28 -8 -1 -5 -7 6 -15 26 -20 37 -9 24 23 -17 40 -32 52 -24 20z"/> <path d="M2640 2260 c12 -8 12 -10 1 -10 -20 0 -8 -10 19 -15 22 -4 22 -4 5 15 -10 11 -23 20 -29 20 -6 0 -4 -5 4 -10z"/> <path d="M2132 2238 c5 -28 -5 -38 -17 -18 -7 12 -25 13 -25 2 0 -10 60 -45 67 -39 2 3 1 16 -3 29 -4 13 -8 26 -9 30 0 3 -4 10 -9 15 -5 4 -7 -4 -4 -19z"/> <path d="M3330 2250 c-8 -5 -26 -7 -40 -4 -22 4 -22 3 -5 -5 11 -5 14 -10 7 -10 -7 -1 -10 -6 -6 -12 4 -7 9 -7 13 -2 3 6 20 17 36 26 17 9 26 16 20 16 -5 1 -17 -4 -25 -9z"/> <path d="M2450 2230 c8 -5 24 -10 34 -10 26 0 18 6 -19 14 -22 5 -26 4 -15 -4z"/> <path d="M2320 2200 c-8 -5 -24 -7 -35 -4 -18 4 -18 4 -3 -6 13 -8 25 -7 45 4 16 8 24 15 18 15 -5 1 -17 -4 -25 -9z"/> <path d="M2940 2193 c8 -3 20 -10 26 -14 6 -5 11 -4 11 4 0 7 -12 13 -26 14 -14 1 -19 -1 -11 -4z"/> <path d="M2080 2166 c0 -16 18 -31 27 -22 3 3 -2 12 -11 21 -14 14 -16 14 -16 1z"/> <path d="M2010 2150 c-11 -21 2 -60 20 -60 20 0 40 13 40 27 0 13 -2 13 -17 2 -15 -12 -16 -12 -10 4 7 19 -1 47 -14 47 -4 0 -13 -9 -19 -20z"/> <path d="M3020 2161 c0 -8 41 -23 47 -17 2 1 -8 8 -22 14 -14 6 -25 8 -25 3z"/> <path d="M2900 2151 c0 -9 -10 -12 -30 -9 -16 3 -30 1 -30 -4 0 -12 58 -10 65 3 4 6 4 13 1 16 -3 4 -6 1 -6 -6z"/> <path d="M2674 2126 c-19 -15 -19 -15 0 -33 18 -17 19 -17 6 0 -11 15 -10 20 6 32 10 8 16 15 13 15 -3 0 -14 -6 -25 -14z"/> <path d="M1951 2099 l-34 -29 23 -25 c28 -29 42 -24 15 5 -18 20 -18 21 1 34 17 13 19 12 22 -15 4 -34 12 -36 37 -9 10 11 13 20 7 20 -6 0 -14 -6 -19 -12 -5 -9 -10 0 -13 24 l-5 37 -34 -30z"/> <path d="M2595 2081 c5 -18 4 -22 -5 -16 -8 5 -11 4 -6 -3 4 -6 13 -9 22 -5 14 5 13 9 -14 43 -3 3 -1 -6 3 -19z"/> <path d="M2454 2082 c5 -8 1 -18 -10 -26 -13 -10 -14 -15 -4 -21 9 -5 11 -4 6 3 -4 7 -3 12 3 12 5 0 11 -3 14 -7 2 -5 2 -3 1 4 -2 6 2 13 8 15 5 2 2 10 -8 18 -12 11 -15 11 -10 2z"/> <path d="M2902 2073 c-7 -7 -9 -13 -4 -13 4 0 16 6 26 13 14 10 15 14 4 14 -7 0 -19 -6 -26 -14z"/> <path d="M2670 2066 c0 -4 6 -14 14 -21 12 -12 16 -12 28 2 10 13 10 15 0 9 -7 -4 -19 -2 -27 4 -8 7 -15 9 -15 6z"/> <path d="M1885 2040 c-14 -16 -16 -23 -7 -32 10 -10 17 -10 32 0 11 7 20 8 20 3 0 -6 -4 -13 -10 -16 -5 -3 -10 -11 -10 -17 0 -6 9 -3 20 7 36 33 14 69 -22 37 -20 -17 -25 -3 -6 16 6 6 9 14 6 17 -2 3 -13 -4 -23 -15z"/> <path d="M2546 2045 c-17 -13 -18 -15 -3 -15 9 0 17 5 17 11 0 5 5 7 12 3 7 -4 8 -3 4 4 -9 14 -7 15 -30 -3z"/> <path d="M2194 2032 c-8 -5 -4 -13 12 -25 23 -17 23 -17 17 0 -6 16 -5 17 13 3 17 -14 18 -14 6 2 -8 10 -20 14 -29 11 -11 -4 -14 -2 -9 5 8 14 6 15 -10 4z"/> <path d="M2539 2013 c-1 -5 -1 -12 0 -17 1 -5 -4 -6 -12 -3 -8 3 -20 1 -28 -5 -11 -8 -10 -9 4 -4 9 3 17 0 17 -6 0 -7 5 -6 15 2 8 7 13 16 10 20 -3 5 5 11 17 13 l23 4 -22 2 c-13 0 -24 -2 -24 -6z"/> <path d="M2776 1991 c-4 -5 4 -7 16 -3 13 3 19 1 15 -5 -5 -7 1 -9 14 -6 16 4 17 8 7 14 -17 11 -45 11 -52 0z"/> <path d="M2548 1962 c-11 -8 -35 -18 -52 -23 l-31 -7 28 -1 c16 -1 40 8 54 19 14 11 29 17 33 15 5 -3 11 -2 14 3 9 14 -23 10 -46 -6z"/> <path d="M2332 1948 c-14 -7 -21 -17 -17 -26 4 -10 0 -12 -10 -8 -9 3 -13 2 -10 -3 3 -5 -4 -13 -16 -16 -11 -4 -18 -9 -16 -12 3 -2 31 10 63 27 54 29 55 31 7 14 -12 -4 -9 2 7 15 28 23 26 25 -8 9z"/> <path d="M2407 1936 c-16 -13 -16 -14 -1 -20 9 -4 19 -4 22 -1 3 3 -1 5 -9 5 -10 1 -9 4 4 11 9 5 22 7 29 3 7 -4 8 -3 4 4 -9 16 -27 15 -49 -2z"/> <path d="M2596 1941 c2 -2 -4 -10 -14 -18 -16 -12 -16 -13 1 -7 9 3 17 2 17 -4 0 -18 -64 -21 -79 -4 -13 16 -13 16 -8 0 4 -10 3 -18 -1 -19 -23 -2 -45 -8 -50 -14 -4 -3 7 -3 23 0 40 9 47 9 70 0 14 -5 16 -4 6 3 -10 7 -4 11 20 14 20 3 37 1 41 -6 4 -6 8 -7 8 -2 0 5 -7 18 -17 28 -15 17 -15 18 5 18 12 0 22 3 22 8 0 4 -11 7 -24 7 -13 0 -23 -2 -20 -4z"/> <path d="M2677 1935 c-8 -8 -18 -11 -22 -7 -5 4 -5 1 -1 -6 6 -11 12 -10 27 4 10 9 19 19 19 21 0 7 -9 2 -23 -12z"/> <path d="M2124 1924 c-19 -15 -19 -15 1 -6 11 5 27 12 35 15 13 5 13 6 -1 6 -8 1 -24 -6 -35 -15z"/> <path d="M2240 1905 c-14 -8 -20 -14 -15 -14 6 0 21 6 35 14 14 8 21 14 15 14 -5 0 -21 -6 -35 -14z"/> <path d="M2432 1899 c-13 -5 -27 -7 -31 -4 -4 2 -8 -2 -8 -8 0 -10 8 -11 34 -3 18 6 33 14 33 18 0 9 2 9 -28 -3z"/> <path d="M2160 1890 l-35 -7 38 -2 c20 0 37 4 37 9 0 6 -1 9 -2 9 -2 -1 -19 -5 -38 -9z"/> <path d="M2185 1865 c-16 -8 -23 -14 -14 -15 8 0 24 7 35 15 23 18 18 18 -21 0z"/> <path d="M2285 1870 c-11 -5 -17 -9 -13 -9 3 -1 14 -4 24 -8 11 -4 15 -3 11 4 -4 6 -1 14 5 16 7 3 9 5 3 6 -5 0 -19 -4 -30 -9z"/> <path d="M2443 1864 c23 -27 22 -42 -2 -20 -17 16 -20 15 -42 -4 l-24 -21 27 16 c15 10 29 12 32 6 3 -5 0 -11 -6 -14 -7 -2 1 -4 19 -3 17 0 29 5 26 9 -3 5 1 14 8 19 12 8 11 9 -1 5 -8 -2 -24 3 -35 12 -20 16 -20 16 -2 -5z"/> <path d="M2230 1850 c0 -16 30 -24 42 -12 8 8 4 9 -13 6 -19 -5 -21 -4 -9 5 13 9 13 11 -2 11 -10 0 -18 -5 -18 -10z"/> <path d="M2090 1831 c0 -4 11 -6 25 -3 14 2 25 6 25 8 0 2 -11 4 -25 4 -14 0 -25 -4 -25 -9z"/> <path d="M2173 1833 c26 -4 39 -23 15 -23 -6 0 -9 -3 -5 -6 3 -3 15 1 27 9 l21 14 -23 7 c-13 3 -32 5 -43 4 -12 0 -9 -3 8 -5z"/> <path d="M1940 1801 c0 -6 -8 -11 -17 -12 -10 0 -13 -3 -6 -5 18 -8 49 11 34 20 -6 4 -11 2 -11 -3z"/> <path d="M2245 1799 c16 -4 33 -5 37 -1 4 4 -10 8 -30 9 -37 1 -37 1 -7 -8z"/> <path d="M2130 1770 c-11 -7 -5 -8 20 -4 43 8 51 14 19 14 -13 0 -31 -5 -39 -10z"/> <path d="M1987 1763 c-3 -5 10 -8 29 -9 21 0 30 3 22 8 -16 10 -45 10 -51 1z"/> <path d="M4153 2467 c-3 -6 -1 -7 4 -4 6 4 13 0 17 -8 3 -8 2 -15 -2 -15 -4 0 -8 -9 -9 -21 -1 -15 4 -11 23 16 27 40 32 59 8 29 -11 -13 -14 -14 -11 -3 6 17 -20 22 -30 6z"/> <path d="M3979 2348 c7 -10 20 -18 28 -18 8 0 12 -4 9 -9 -3 -5 1 -11 9 -15 9 -3 12 -12 9 -23 -5 -15 -4 -16 5 -3 6 8 11 13 12 10 0 -3 2 -13 4 -22 2 -9 -6 -26 -16 -37 -10 -11 -15 -22 -10 -25 8 -5 36 42 33 57 -1 4 3 7 9 7 7 0 0 9 -15 21 -14 11 -26 28 -26 37 0 15 2 15 11 2 9 -13 10 -13 6 0 -2 9 -13 14 -26 12 -12 -2 -30 2 -39 10 -15 12 -16 11 -3 -4z"/> <path d="M3902 2255 c-8 -10 -9 -15 -2 -15 6 0 9 -4 5 -9 -3 -5 0 -13 6 -17 8 -4 7 -9 -2 -16 -11 -8 -11 -9 1 -5 8 2 21 -3 29 -12 7 -9 6 -4 -3 12 -12 19 -13 27 -4 27 6 0 3 7 -8 15 -19 15 -19 15 1 8 18 -6 18 -5 6 10 -16 20 -13 20 -29 2z"/> <path d="M3960 2220 c0 -5 7 -6 17 -3 10 4 14 2 9 -5 -3 -6 -2 -13 3 -16 5 -3 11 0 14 8 3 8 -1 17 -9 20 -23 9 -34 7 -34 -4z"/> <path d="M3832 2168 c16 -16 34 -28 41 -28 6 0 3 6 -8 12 -11 6 -29 18 -40 27 -12 9 -8 4 7 -11z"/> <path d="M3764 2152 c6 -8 6 -16 0 -20 -5 -4 -11 -18 -12 -32 -2 -14 0 -21 5 -17 8 8 9 12 12 38 1 8 6 7 17 -2 8 -7 13 -21 11 -30 -3 -10 0 -17 5 -16 6 1 13 -4 16 -12 3 -9 0 -11 -9 -6 -11 6 -11 5 -2 -5 8 -9 9 -20 2 -38 -7 -18 -6 -29 2 -36 9 -8 10 -7 6 7 -4 9 -3 17 1 17 4 0 8 16 8 36 1 20 8 40 15 45 7 4 10 11 6 15 -3 4 -13 1 -22 -6 -12 -10 -15 -10 -15 1 0 8 -13 28 -28 44 -15 17 -23 25 -18 17z"/> <path d="M3800 2161 c0 -6 6 -11 13 -11 9 0 8 -3 -2 -9 -11 -7 -9 -12 10 -22 21 -11 22 -10 12 3 -7 8 -11 17 -8 20 3 3 -1 11 -10 18 -10 8 -15 9 -15 1z"/> <path d="M3725 2112 c4 -29 2 -32 -11 -22 -12 11 -13 10 -8 -4 8 -22 30 -14 27 10 -1 10 2 25 7 34 6 12 5 17 -5 17 -11 0 -13 -10 -10 -35z"/> <path d="M3907 2139 c-21 -12 -22 -35 -2 -43 8 -3 15 -1 15 4 0 6 -6 10 -12 10 -8 0 -5 7 6 15 23 18 18 28 -7 14z"/> <path d="M3675 2101 c6 -18 4 -22 -6 -16 -8 5 -10 4 -6 0 4 -5 14 -10 22 -11 12 -2 13 2 4 19 -17 32 -22 35 -14 8z"/> <path d="M3626 2070 c6 -22 5 -23 -10 -11 -14 12 -16 12 -10 -4 5 -13 4 -16 -4 -11 -8 5 -10 2 -6 -8 5 -14 8 -14 21 -1 18 19 19 19 27 -1 4 -12 2 -15 -9 -10 -22 8 -18 -7 5 -22 11 -7 20 -18 20 -25 0 -7 -7 -3 -15 7 -8 11 -17 17 -20 14 -7 -7 42 -58 56 -58 7 0 4 7 -7 16 -19 15 -19 16 0 9 19 -6 19 -5 2 13 -9 11 -19 32 -22 48 -5 28 -5 28 15 10 12 -11 21 -16 21 -11 0 4 7 2 14 -5 11 -8 12 -18 5 -36 -12 -33 -11 -44 2 -22 12 21 23 98 11 83 -4 -5 -15 -11 -25 -12 -13 -1 -17 4 -12 15 3 9 3 13 -1 9 -4 -4 -13 -2 -21 4 -10 9 -13 8 -13 -2 -1 -8 -7 -3 -16 11 l-15 25 7 -25z"/> <path d="M3900 2061 c0 -10 30 -24 37 -17 3 2 -5 9 -16 16 -12 6 -21 7 -21 1z"/> <path d="M3532 1995 c9 -10 21 -16 28 -13 7 2 -1 10 -16 17 -27 12 -28 11 -12 -4z"/> <path d="M3776 1985 c-3 -8 -1 -15 5 -15 6 0 7 -5 3 -12 -4 -6 -3 -8 4 -5 5 4 8 16 5 27 -6 24 -9 25 -17 5z"/> <path d="M3723 1958 c-6 -18 -10 -46 -9 -61 1 -24 8 -31 41 -43 52 -18 67 -18 31 1 -15 8 -37 15 -47 15 -23 0 -23 1 -4 46 8 19 10 32 4 29 -6 -4 -7 3 -3 19 9 37 0 32 -13 -6z"/> <path d="M3845 1957 l-20 -20 20 10 c11 6 27 12 34 15 13 4 13 5 0 10 -7 3 -23 -4 -34 -15z"/> <path d="M3459 1953 c13 -26 14 -36 3 -29 -4 2 -14 0 -22 -5 -13 -9 -13 -10 0 -8 8 1 23 -1 33 -6 10 -4 21 -5 24 -1 4 3 -1 6 -10 6 -9 0 -14 6 -11 13 2 7 -3 21 -11 32 -16 19 -16 19 -6 -2z"/> <path d="M3785 1931 c-7 -12 12 -24 24 -16 5 3 12 1 16 -5 3 -5 10 -10 15 -10 6 0 2 9 -7 20 -19 21 -38 26 -48 11z"/> <path d="M3580 1905 c5 -14 9 -29 9 -33 -3 -18 3 -20 32 -8 34 14 73 10 62 -7 -3 -6 -1 -7 5 -3 20 12 14 21 -28 39 -48 21 -77 22 -35 1 22 -11 24 -13 7 -10 -12 2 -20 0 -16 -5 3 -5 1 -9 -4 -9 -6 0 -15 14 -21 30 -5 17 -12 30 -15 30 -3 0 -1 -11 4 -25z"/> <path d="M3665 1920 c-9 -14 3 -30 23 -30 15 1 15 2 -1 11 -9 6 -15 14 -12 20 4 5 4 9 1 9 -3 0 -8 -4 -11 -10z"/> <path d="M3521 1893 c7 -12 21 -21 30 -20 10 1 15 5 12 10 -3 4 -8 6 -11 3 -3 -3 -14 2 -25 11 -19 17 -19 17 -6 -4z"/> <path d="M3750 1900 c12 -8 12 -10 1 -10 -8 0 -12 -2 -9 -5 3 -3 13 -3 22 1 19 7 11 24 -12 24 -15 0 -15 -2 -2 -10z"/> <path d="M3415 1890 c18 -7 16 -8 -10 -12 l-30 -5 30 0 c17 -1 33 -2 38 -3 4 -1 11 -3 16 -4 15 -2 25 -16 12 -16 -7 0 -9 -4 -6 -10 3 -5 -1 -10 -9 -10 -9 0 -15 6 -13 13 1 7 -11 13 -33 14 l-35 1 35 -7 c28 -5 31 -8 17 -14 -11 -4 -23 -5 -28 -1 -5 3 -9 3 -9 0 0 -3 10 -10 21 -17 15 -8 19 -8 15 0 -4 6 -2 11 3 11 6 0 11 -5 11 -11 0 -6 7 -8 16 -5 13 5 15 2 10 -16 -3 -13 -6 -26 -6 -30 0 -3 -10 -4 -21 -1 -20 6 -20 4 -8 -18 7 -13 13 -26 12 -29 -1 -3 7 -6 17 -6 18 0 20 11 7 34 -5 7 -3 12 3 12 6 0 9 4 6 9 -10 16 4 37 26 38 15 2 18 -1 10 -9 -8 -8 -7 -15 4 -25 16 -17 19 -43 3 -43 -5 0 -8 4 -5 9 3 5 -1 14 -9 21 -10 9 -15 9 -15 1 0 -6 6 -11 13 -11 8 0 7 -3 -3 -10 -12 -8 -12 -10 3 -16 9 -3 17 -14 18 -23 0 -9 6 2 13 24 15 47 35 86 36 67 0 -7 -7 -29 -15 -49 -12 -28 -13 -39 -4 -47 9 -8 10 -7 6 6 -9 26 15 28 42 4 l24 -21 -18 28 c-9 15 -13 27 -7 27 5 0 12 -7 16 -15 3 -8 11 -15 17 -15 7 0 0 11 -14 24 -14 13 -35 47 -47 75 -13 28 -27 51 -32 51 -6 0 -4 -8 3 -17 12 -15 12 -16 -4 -10 -11 4 -16 3 -12 -3 3 -6 13 -10 21 -10 8 0 14 -5 14 -11 0 -5 -4 -7 -10 -4 -5 3 -7 0 -4 -8 3 -8 -2 -14 -11 -14 -8 0 -14 7 -13 16 2 10 -4 16 -17 16 -13 0 -20 7 -20 20 0 11 6 20 14 20 18 0 26 21 12 30 -6 3 -8 0 -5 -9 4 -10 0 -13 -13 -11 -10 2 -20 4 -23 4 -3 1 2 6 10 11 9 6 10 10 3 10 -6 0 -15 -5 -18 -10 -4 -6 -11 -7 -17 -4 -6 4 -5 10 3 15 9 6 2 9 -21 8 -28 0 -31 -2 -15 -9z"/> <path d="M3796 1889 c3 -5 0 -9 -7 -9 -7 0 -10 -2 -7 -5 3 -3 16 -2 28 3 l24 9 -22 5 c-12 4 -20 2 -16 -3z"/> <path d="M3650 1851 c0 -13 11 -19 49 -26 28 -5 30 -3 19 9 -7 8 -14 10 -16 6 -2 -4 -12 -6 -22 -3 -11 3 -17 9 -14 14 3 5 0 9 -5 9 -6 0 -11 -4 -11 -9z"/> <path d="M3592 1837 c-6 -7 -8 -23 -5 -36 6 -22 7 -22 19 9 8 18 14 34 14 36 0 9 -18 3 -28 -9z"/> <path d="M3741 1829 c5 -10 12 -19 15 -19 3 0 3 4 0 9 -4 5 -1 11 6 13 7 3 3 7 -10 10 -19 5 -20 4 -11 -13z"/> <path d="M3632 1803 c6 -7 17 -13 26 -13 8 0 24 -7 34 -17 23 -21 24 -10 1 13 -17 17 -17 17 5 12 13 -4 20 -2 16 4 -4 5 -22 7 -43 4 -25 -5 -32 -4 -21 3 12 8 10 10 -7 8 -17 -1 -19 -4 -11 -14z"/> <path d="M3375 1800 c-17 -7 -15 -8 11 -7 17 0 36 -3 43 -7 6 -4 11 -2 11 3 0 6 -4 11 -9 11 -5 0 -15 2 -23 4 -7 3 -22 1 -33 -4z"/> <path d="M3212 1781 c-11 -6 -7 -13 16 -30 36 -25 42 -26 42 -5 0 8 -4 13 -9 10 -15 -10 -43 6 -37 20 6 16 5 17 -12 5z"/> <path d="M3625 1778 c11 -7 29 -13 40 -15 16 -2 17 -1 5 6 -8 5 -26 12 -40 15 -23 6 -24 6 -5 -6z"/> <path d="M3300 1760 c0 -6 -5 -8 -12 -4 -7 4 -8 3 -4 -4 4 -6 2 -21 -5 -33 -9 -17 -8 -23 2 -30 10 -6 10 -9 2 -9 -6 0 -15 5 -19 11 -4 8 -9 7 -14 -2 -6 -9 -12 -2 -19 22 l-11 34 5 -32 c4 -28 2 -31 -16 -28 -13 3 -19 0 -16 -8 2 -7 11 -11 20 -9 8 1 23 -8 31 -20 9 -12 16 -17 16 -11 0 7 -5 15 -10 18 -6 4 -8 10 -5 15 6 11 45 1 45 -12 0 -5 -4 -6 -10 -3 -6 3 -7 -1 -4 -10 5 -12 10 -13 20 -4 8 6 11 16 7 23 -4 6 -8 24 -9 39 -2 23 0 26 12 16 9 -7 14 -8 14 -1 0 6 -6 13 -12 15 -10 4 -10 8 1 15 9 7 10 12 2 16 -6 4 -11 2 -11 -4z"/> <path d="M3400 1752 c0 -6 -7 -9 -15 -6 -22 9 -38 -5 -24 -22 9 -11 8 -14 -4 -14 -8 0 -18 6 -20 13 -4 7 -6 8 -6 1 -1 -6 6 -17 14 -24 8 -7 15 -9 15 -5 0 4 6 2 14 -4 8 -7 23 -13 34 -16 16 -3 19 1 14 18 -5 18 -7 19 -10 5 -3 -15 -7 -16 -24 -7 -11 6 -17 13 -14 16 3 4 1 12 -5 19 -8 10 -5 12 13 10 13 -1 30 -6 38 -11 13 -8 13 -6 0 11 -8 10 -16 21 -17 23 -2 2 -3 -1 -3 -7z"/> <path d="M3153 1678 c3 -20 1 -38 -4 -40 -5 -2 -4 -11 4 -22 12 -16 13 -12 10 34 -1 29 -6 56 -9 59 -4 3 -4 -11 -1 -31z"/> <path d="M3080 1695 c0 -5 7 -17 17 -27 17 -19 5 -26 -14 -7 -7 7 -19 9 -28 5 -15 -5 -15 -8 -1 -21 19 -19 32 -20 16 0 -19 23 -1 18 34 -9 l31 -23 1 28 c1 26 0 27 -11 12 -12 -15 -12 -14 -8 10 3 16 10 24 17 20 6 -3 7 -2 3 2 -14 16 -36 14 -30 -3 3 -13 1 -13 -11 2 -9 11 -16 16 -16 11z"/> <path d="M3176 1643 c-5 -11 -1 -22 10 -30 23 -16 37 -17 32 0 -3 6 -10 12 -15 12 -6 0 -15 4 -20 9 -5 5 -3 6 5 2 14 -8 17 10 3 18 -5 3 -12 -2 -15 -11z"/> <path d="M3210 1654 c0 -5 7 -18 15 -28 12 -16 15 -17 15 -4 0 8 -7 21 -15 28 -8 7 -15 9 -15 4z"/> <path d="M2994 1597 c0 -13 5 -24 11 -24 7 0 10 10 7 24 -2 13 -7 23 -11 23 -4 0 -7 -10 -7 -23z"/> <path d="M3060 1614 c0 -5 4 -14 8 -20 9 -14 56 -39 48 -26 -3 6 -2 13 3 16 5 3 11 -1 15 -9 3 -8 16 -14 28 -14 l23 2 -22 4 c-13 2 -23 9 -23 14 0 6 6 7 13 3 7 -4 9 -3 4 2 -5 5 -13 10 -18 10 -5 1 -10 2 -11 4 -2 1 -10 3 -18 5 -8 2 -23 6 -32 10 -10 4 -18 3 -18 -1z"/> <path d="M3027 1580 c4 -16 8 -18 19 -9 16 13 10 29 -11 29 -8 0 -11 -7 -8 -20z"/> <path d="M2917 1578 c2 -5 -2 -8 -9 -8 -7 0 -5 -5 6 -11 15 -9 16 -13 5 -20 -8 -5 -25 -8 -39 -8 l-25 1 25 8 c20 6 21 8 5 8 -11 0 -29 -3 -40 -8 -16 -7 -12 -9 23 -15 27 -5 39 -11 31 -15 -7 -5 -1 -7 15 -7 22 2 24 4 10 14 -13 10 -13 12 7 18 22 7 22 8 3 23 -15 11 -15 13 -2 9 9 -3 34 -8 55 -11 l38 -6 -34 11 c-22 7 -30 13 -23 18 7 4 -3 7 -22 7 -19 -1 -32 -4 -29 -8z"/> <path d="M2970 1529 c12 -9 10 -10 -9 -5 -17 3 -21 2 -13 -6 12 -12 42 -4 42 12 0 5 -8 10 -17 10 -16 0 -16 -2 -3 -11z"/> <path d="M2823 1497 c0 -7 11 -13 24 -13 27 -2 27 -1 -3 14 -15 8 -21 8 -21 -1z"/> <path d="M2478 4382 c-10 -2 -18 -8 -18 -13 0 -11 11 -11 30 1 18 11 11 18 -12 12z"/> <path d="M2394 4350 c-21 -10 -64 -28 -94 -41 -128 -52 -124 -49 -108 -65 19 -19 49 -8 40 14 -5 15 -4 16 13 2 15 -12 17 -12 10 -1 -6 11 -4 13 9 8 9 -4 15 -3 12 1 -5 8 85 54 148 78 17 6 25 13 20 17 -6 3 -28 -3 -50 -13z"/> <path d="M2100 4216 c-36 -19 -64 -37 -62 -40 1 -3 3 -5 5 -4 1 1 12 -4 24 -10 19 -11 21 -9 18 13 -3 28 4 31 24 13 11 -11 12 -10 6 0 -5 9 -2 12 10 10 10 -2 20 4 22 12 4 12 3 12 -5 1 -6 -8 -12 -9 -16 -3 -9 14 20 22 33 9 8 -8 11 -8 11 2 0 7 5 9 11 5 7 -4 10 -1 7 6 -7 23 -21 21 -88 -14z"/> <path d="M1988 4157 c-7 -7 -25 -18 -40 -24 -16 -7 -28 -17 -28 -23 0 -6 -4 -9 -9 -6 -5 3 -18 -2 -30 -12 l-20 -17 27 -20 27 -20 -16 26 c-16 23 -16 25 1 25 10 0 16 -6 13 -13 -3 -7 0 -13 7 -13 6 0 9 4 5 9 -3 5 1 16 9 24 8 8 12 18 8 22 -4 5 -1 5 6 1 7 -5 11 -15 8 -23 -4 -8 -1 -11 5 -7 6 3 9 14 6 24 -3 14 0 17 13 15 10 -2 21 4 25 13 5 14 7 14 15 2 7 -11 10 -12 10 -2 0 8 5 10 13 6 8 -5 8 -2 -2 9 -16 20 -35 22 -53 4z"/> <path d="M1453 3732 c-8 -5 -9 -13 -3 -22 8 -12 10 -11 10 5 0 17 2 17 10 5 8 -13 10 -12 10 3 0 18 -8 21 -27 9z"/> <path d="M1110 3428 c-30 -40 -34 -59 -12 -50 11 4 12 7 4 10 -9 3 -5 11 10 26 20 19 34 46 25 46 -2 0 -14 -15 -27 -32z"/> <path d="M1046 3352 c-3 -9 -19 -32 -35 -50 -17 -17 -27 -32 -24 -32 3 0 0 -6 -7 -14 -9 -12 -8 -15 9 -13 11 0 18 4 15 8 -6 10 6 39 17 39 4 0 6 -7 3 -15 -9 -23 4 -18 17 6 8 15 8 19 0 15 -6 -4 -11 0 -11 9 0 9 3 14 8 12 4 -3 12 1 19 8 10 11 10 15 0 18 -7 3 -4 6 6 6 10 1 15 6 12 11 -10 15 -23 12 -29 -8z"/> <path d="M950 3219 c0 -6 -8 -18 -19 -27 -10 -10 -30 -38 -45 -64 -24 -44 -25 -48 -8 -48 10 0 24 -6 32 -12 8 -7 6 -3 -3 8 -14 17 -15 23 -5 27 10 4 10 6 0 6 -10 1 -10 6 -2 21 6 11 15 18 20 15 5 -3 11 -1 15 5 4 6 11 8 16 5 5 -4 12 2 16 12 4 10 11 21 17 25 7 5 3 8 -9 8 -16 0 -17 2 -5 9 8 6 18 7 22 5 4 -3 8 0 8 5 0 6 -11 11 -25 11 -14 0 -25 -5 -25 -11z m10 -39 c0 -17 -2 -19 -14 -8 -10 9 -11 15 -2 20 16 11 16 10 16 -12z"/> <path d="M841 3060 c-15 -10 -20 -39 -8 -48 17 -13 58 -22 51 -11 -3 5 -11 9 -19 9 -8 0 -17 4 -20 10 -4 6 1 7 12 4 17 -5 17 -5 0 9 -10 8 -14 18 -9 21 5 3 15 -1 22 -9 12 -14 43 -16 56 -2 4 3 -5 4 -20 1 -19 -3 -24 -1 -20 10 4 10 -1 14 -16 13 -11 -1 -24 -4 -29 -7z"/> <path d="M803 2993 c-4 -10 -24 -47 -45 -82 -41 -71 -50 -101 -18 -62 11 12 17 27 14 32 -7 12 2 11 29 -2 20 -9 20 -9 5 4 -10 8 -18 19 -18 25 0 5 8 9 18 7 9 -1 12 0 5 2 -17 6 6 53 26 53 9 0 12 -3 6 -8 -9 -6 -19 -32 -12 -32 1 0 10 9 20 20 17 20 16 21 -5 30 -13 5 -17 9 -10 9 14 1 17 21 2 21 -6 0 -14 -8 -17 -17z"/> <path d="M4615 2914 c1 -15 -5 -30 -17 -38 -16 -12 -17 -14 -3 -20 11 -4 19 2 25 20 6 14 8 29 5 34 -3 5 0 10 7 12 8 3 6 6 -4 10 -12 5 -15 1 -13 -18z"/> <path d="M720 2817 c-14 -7 -24 -21 -24 -30 1 -9 -2 -17 -8 -17 -5 0 -6 -4 -3 -10 3 -5 2 -10 -3 -10 -9 0 -23 -31 -26 -55 -1 -5 -5 -13 -11 -17 -5 -4 -6 -10 -3 -13 11 -12 35 18 30 37 -2 10 1 18 7 18 7 0 10 4 7 8 -3 5 3 18 14 29 10 12 16 24 12 28 -4 3 4 15 18 25 29 23 25 25 -10 7z"/> <path d="M4572 2775 c-7 -8 -10 -15 -6 -15 3 0 1 -7 -6 -15 -6 -8 -9 -18 -6 -23 3 -5 -3 -18 -14 -30 -14 -14 -16 -22 -7 -25 7 -3 3 -6 -8 -6 -15 -1 -17 -3 -7 -10 10 -6 9 -10 -7 -14 -12 -3 -24 -1 -27 4 -3 5 -10 9 -15 9 -6 0 3 -12 18 -26 18 -16 24 -27 16 -30 -7 -3 -9 -12 -6 -20 4 -10 0 -12 -13 -8 -16 6 -17 5 -6 -7 18 -19 15 -33 -4 -15 -17 17 -39 22 -30 7 4 -5 0 -12 -6 -15 -7 -3 -4 -5 7 -3 11 1 25 -2 32 -6 20 -12 48 63 33 87 -10 16 -9 18 5 13 12 -5 20 2 31 28 8 19 15 45 17 57 1 13 5 25 8 28 7 6 22 50 17 50 -2 -1 -9 -7 -16 -15z"/> <path d="M611 2593 c-7 -16 -19 -40 -26 -55 -10 -20 -11 -30 -3 -34 7 -4 8 -2 4 4 -4 7 -2 12 3 12 6 0 11 7 11 15 0 8 4 15 9 15 5 0 7 9 4 20 -4 13 0 20 9 20 8 0 15 7 15 15 0 23 -12 18 -26 -12z"/> <path d="M4462 2498 c-7 -7 -12 -18 -12 -25 0 -7 -5 -13 -11 -13 -5 0 -8 4 -5 9 3 5 -1 11 -9 15 -18 6 -30 -10 -13 -18 9 -3 7 -9 -6 -20 -14 -11 -16 -16 -5 -15 31 1 52 16 65 47 14 35 14 38 -4 20z"/> <path d="M4407 2415 c-18 -18 -31 -20 -21 -3 5 7 3 8 -6 3 -10 -6 -10 -11 4 -20 15 -12 15 -13 -4 -18 -11 -3 -18 -2 -16 2 3 4 1 13 -3 20 -6 9 -8 5 -8 -12 0 -19 5 -24 23 -24 26 0 58 27 33 27 -10 1 -8 5 5 15 11 8 17 17 14 20 -3 3 -13 -1 -21 -10z"/> <path d="M4364 2335 c-7 -28 -38 -50 -56 -39 -7 5 -8 3 -4 -5 5 -7 15 -10 23 -7 8 4 11 1 7 -5 -3 -6 -18 -8 -33 -5 -14 3 -20 3 -13 0 18 -8 15 -27 -4 -20 -8 3 -12 2 -9 -4 12 -19 45 -10 62 18 10 15 24 32 32 38 8 6 11 16 7 22 -3 5 -1 12 6 14 9 3 9 6 0 12 -7 4 -14 -3 -18 -19z"/> <path d="M4302 2323 c6 -7 14 -13 18 -13 3 0 7 6 7 13 0 7 -8 13 -18 13 -13 0 -15 -3 -7 -13z"/> <path d="M4272 2228 c21 -19 23 -29 6 -24 -7 1 -10 1 -6 -1 13 -7 -10 -40 -31 -46 -11 -2 -25 0 -32 7 -9 8 -9 6 0 -7 9 -11 22 -16 35 -13 13 3 11 1 -5 -6 -14 -6 -31 -23 -37 -37 l-11 -26 4 25 c4 24 4 24 -7 -2 -7 -16 -16 -28 -21 -28 -5 0 -3 -8 4 -17 12 -15 12 -16 -4 -10 -11 4 -16 3 -12 -3 3 -6 2 -10 -4 -10 -6 0 -7 -7 -4 -17 4 -11 3 -14 -5 -9 -7 4 -12 1 -12 -7 0 -8 -16 -30 -35 -50 -20 -21 -33 -37 -29 -37 4 0 -3 -9 -16 -20 -13 -11 -18 -20 -13 -20 6 0 39 35 74 78 35 42 67 79 71 80 5 2 8 8 8 14 0 5 21 35 46 66 26 31 52 68 58 82 6 14 15 28 21 32 5 4 -1 8 -15 8 -15 0 -30 3 -36 8 -5 4 -1 0 8 -10z"/> </g> </svg>